<svg height="512pt" viewBox="0 -64 512 512" width="512pt" xmlns="http://www.w3.org/2000/svg"><path d="m512 155.332031c0-13.207031-10.804688-24.011719-24.011719-24.011719h-126.082031c-33.832031 0-61.253906 27.421876-61.253906 61.253907 0 33.828125 27.421875 61.253906 61.253906 61.253906h79.136719c26.125 0 49.382812-16.550781 57.945312-41.234375 3.832031-11.054688-3.664062-22.554688-14.921875-23.878906 9.144532-6.910156 27.933594-17.46875 27.933594-33.382813zm0 0" fill="#f9eab9"/><path d="m361.90625 131.320312c-33.832031 0-61.253906 27.421876-61.253906 61.253907 0 33.828125 27.421875 61.253906 61.253906 61.253906h63.457031c-18.144531-31.480469-22.515625-87.050781-18.945312-122.507813zm0 0" fill="#efd176"/><path d="m283.1875 0c-59.53125 0-107.792969 48.261719-107.792969 107.789062 0 30.039063-9.722656 59.269532-27.71875 83.316407l-34.464843 46.058593c-11.6875 16.0625-57.707032 69.902344-81.964844 98.105469-7.386719 8.589844-3.96875 21.914063 6.644531 25.894531 7.179687 2.695313 15.085937 2.789063 22.332031.257813 0 0 14.765625-5.15625 14.765625-5.15625 2.375-.828125 4.972657.425781 5.796875 2.800781l1.734375 4.984375c2.851563 8.210938 9.074219 14.808594 17.101563 18.144531 8.039062 3.34375 17.316406.402344 21.964844-6.957031l22.152343-35.085937c2.125-3.363282 5.824219-5.40625 9.804688-5.40625h56.058593c100.171876 0 181.378907-81.207032 181.378907-181.378906v-45.578126c0-59.527343-48.261719-107.789062-107.792969-107.789062zm0 0" fill="#f9eab9"/><path d="m174.859375 119.824219c-2.234375 25.753906-11.601563 50.460937-27.183594 71.28125l-34.464843 46.058593c-11.6875 16.0625-57.707032 69.902344-81.964844 98.105469-7.386719 8.589844-3.96875 21.914063 6.644531 25.894531 7.179687 2.695313 15.082031 2.789063 22.332031.257813 0 0 14.765625-5.15625 14.765625-5.15625 2.375-.828125 4.972657.425781 5.796875 2.800781l1.734375 4.984375c2.855469 8.210938 9.078125 14.808594 17.101563 18.144531 8.039062 3.34375 17.316406.402344 21.964844-6.957031l22.152343-35.085937c2.125-3.363282 5.824219-5.40625 9.804688-5.40625h56.058593c29.203126 0 56.785157-6.910156 81.222657-19.167969-69.886719-16.050781-108.210938-123.492187-115.964844-195.753906zm0 0" fill="#efd176"/><path d="m253.832031 161.960938c-1.710937 0-3.425781-.582032-4.835937-1.769532-3.164063-2.671875-3.5625-7.40625-.890625-10.570312 20.625-24.429688 40.695312-29.171875 53.90625-28.855469 16.960937.410156 33.246093 9.21875 44.675781 24.164063 2.515625 3.289062 1.886719 7.996093-1.402344 10.511718-3.289062 2.519532-8 1.890625-10.515625-1.402344-8.652343-11.316406-20.726562-17.980468-33.121093-18.277343-.289063-.007813-.578126-.011719-.867188-.011719-13.964844 0-28.191406 8.125-41.214844 23.550781-1.484375 1.753907-3.601562 2.660157-5.734375 2.660157zm0 0" fill="#8ee2cf"/><path d="m406.988281 205.742188c.066407 5.207031-4.144531 9.417968-9.351562 9.351562-12.1875-.164062-33.964844-2.585938-47.882813-16.503906-13.917968-13.917969-16.339844-35.699219-16.503906-47.886719-.066406-5.203125 4.144531-9.417969 9.351562-9.347656 12.1875.164062 33.964844 2.585937 47.882813 16.503906s16.339844 35.695313 16.503906 47.882813zm0 0" fill="#8ee2cf"/><path d="m378.429688 194.035156c-1.917969 0-3.835938-.730468-5.300782-2.195312l-16.625-16.625c-2.929687-2.929688-2.929687-7.679688 0-10.605469 2.929688-2.929687 7.679688-2.929687 10.605469 0l16.625 16.621094c2.929687 2.929687 2.929687 7.679687 0 10.609375-1.464844 1.464844-3.382813 2.195312-5.304687 2.195312zm0 0" fill="#6fce91"/><path d="m241.917969 111.46875c0-11.949219-12.164063-21.636719-27.167969-21.636719s-27.167969 9.6875-27.167969 21.636719 12.164063 21.632812 27.167969 21.632812 27.167969-9.683593 27.167969-21.632812zm0 0" fill="#eda1ab"/><path d="m389.1875 111.46875c0-11.949219-12.164062-21.636719-27.171875-21.636719-15.003906 0-27.167969 9.6875-27.167969 21.636719s12.164063 21.632812 27.167969 21.632812c15.007813 0 27.171875-9.683593 27.171875-21.632812zm0 0" fill="#eda1ab"/><path d="m243.515625 95.421875c-4.144531 0-7.5-3.355469-7.5-7.5 0-2.992187-2.4375-5.429687-5.429687-5.429687-2.996094 0-5.433594 2.4375-5.433594 5.429687 0 4.144531-3.355469 7.5-7.5 7.5-4.144532 0-7.5-3.355469-7.5-7.5 0-11.265625 9.164062-20.429687 20.433594-20.429687 11.265624 0 20.429687 9.164062 20.429687 20.429687 0 4.144531-3.359375 7.5-7.5 7.5zm0 0" fill="#4e5660"/><path d="m359.113281 95.421875c-4.140625 0-7.5-3.355469-7.5-7.5 0-2.992187-2.4375-5.429687-5.429687-5.429687-2.996094 0-5.433594 2.4375-5.433594 5.429687 0 4.144531-3.355469 7.5-7.5 7.5s-7.5-3.355469-7.5-7.5c0-11.265625 9.164062-20.429687 20.433594-20.429687 11.265625 0 20.429687 9.164062 20.429687 20.429687 0 4.144531-3.355469 7.5-7.5 7.5zm0 0" fill="#4e5660"/><path d="m310.230469 135.316406h-35.15625c-10.246094 0-17.015625-10.65625-12.660157-19.933594l12.125-25.828124c4.265626-9.085938 16.425782-10.855469 23.105469-3.367188l23.03125 25.832031c8.035157 9.015625 1.636719 23.296875-10.445312 23.296875zm0 0" fill="#eea849"/><path d="m484.066406 196.214844h-37.730468c-4.140626 0-7.5-3.359375-7.5-7.5 0-4.144532 3.359374-7.5 7.5-7.5h37.730468c4.144532 0 7.5 3.355468 7.5 7.5 0 4.140625-3.355468 7.5-7.5 7.5zm0 0" fill="#efd176"/><path d="m0 151.472656c0-13.207031 10.804688-24.011718 24.011719-24.011718h126.082031c33.832031 0 61.253906 27.425781 61.253906 61.253906s-27.421875 61.253906-61.253906 61.253906h-79.136719c-26.128906 0-49.386719-16.550781-57.945312-41.234375-3.832031-11.054687 3.664062-22.554687 14.921875-23.878906-9.144532-6.910157-27.933594-17.464844-27.933594-33.382813zm0 0" fill="#f9eab9"/><path d="m65.660156 192.355469h-37.726562c-4.144532 0-7.5-3.359375-7.5-7.5s3.355468-7.5 7.5-7.5h37.730468c4.140626 0 7.5 3.359375 7.5 7.5-.003906 4.140625-3.359374 7.5-7.503906 7.5zm0 0" fill="#efd176"/><g fill="#eea849"><path d="m180.953125 380.542969c-2.832031 0-5.699219-.773438-8.273437-2.402344-7.230469-4.578125-9.386719-14.152344-4.808594-21.382813 6.367187-10.066406 13.679687-24.175781 13.679687-44.128906 0-8.558594 6.9375-15.496094 15.496094-15.496094s15.5 6.9375 15.5 15.496094c0 28.230469-10.550781 48.164063-18.484375 60.703125-2.949219 4.660157-7.972656 7.210938-13.109375 7.210938zm0 0"/><path d="m253.785156 380.542969c-2.832031 0-5.699218-.773438-8.273437-2.402344-7.230469-4.578125-9.382813-14.152344-4.808594-21.382813 6.371094-10.066406 13.679687-24.171874 13.679687-44.128906 0-8.558594 6.9375-15.496094 15.496094-15.496094s15.5 6.9375 15.5 15.496094c0 28.234375-10.550781 48.164063-18.484375 60.703125-2.945312 4.660157-7.972656 7.210938-13.109375 7.210938zm0 0"/></g></svg>