<svg id="Layer_1" enable-background="new 0 0 512 512" height="512" viewBox="0 0 512 512" width="512" xmlns="http://www.w3.org/2000/svg"><g><g><path d="m105.908 407.293c-36.825 0-63.097-11.164-75.463-32.583-6.335-10.973-6.658-28.624-6.658-28.624 2.814-21.447 14.897-46.024 35.833-72.158 27.855-34.77 69.117-69.882 117.631-100.338l1.712-3.324.894 1.684c5.789-3.595 11.679-7.123 17.659-10.576 5.967-3.445 11.954-6.775 17.948-9.984l17.505-18.311 19.184.205c39.17-17.699 77.589-29.822 111.784-35.053 54.942-8.404 93.977 2.167 109.913 29.77 3.427 5.936 5.638 12.403 6.652 19.33 3.7 25.284-8.55 47.402-35.827 81.451-31.659 39.52-80.631 79.492-137.895 112.553-57.264 33.062-116.367 55.487-166.421 63.144-12.308 1.883-23.821 2.814-34.451 2.814zm292.763-290.229c-9.095 0-19.171.814-30.053 2.479-46.343 7.09-101.611 28.168-155.624 59.352s-99.901 68.509-129.213 105.098c-15.548 19.408-25.299 46.744-28.52 61.344-2.053 9.308-1.452 17.216 1.994 23.184 8.851 15.329 38.166 20.806 78.42 14.646 46.343-7.09 101.611-28.168 155.624-59.352 54.013-31.184 99.901-68.509 129.213-105.098 23.073-28.802 33.381-54.602 28.523-70.596 0 0-1.563-12.33-1.997-13.932-3.848-14.182-23.818-17.125-48.367-17.125z" fill="#ff5876"/><g><g fill="#e6485d"><path d="m447.039 124.899c-6.458-11.185-23.818-17.125-48.368-17.125-9.095 0-19.171.814-30.053 2.479-46.343 7.09-101.611 28.168-155.624 59.352s-99.901 68.509-129.213 105.098c-23.094 28.827-33.397 54.646-28.509 70.637 3.219-14.602 12.958-32.643 28.509-52.056 29.312-36.59 75.2-73.914 129.213-105.098 13.016-7.514 26.104-14.442 39.123-20.729l19.249.439 17.428-16.528c28.107-11.066 55.223-18.771 79.823-22.535 10.882-1.665 20.958-2.479 30.053-2.479 24.549 0 41.91 5.94 48.368 17.125.823 1.425 1.482 2.962 1.983 4.6 2.052-9.303 1.462-17.214-1.982-23.18z"/><path d="m444.675 219.491c-31.659 39.52-80.631 79.492-137.895 112.553-57.264 33.062-116.367 55.487-166.421 63.144-12.307 1.883-23.82 2.814-34.45 2.814-36.825 0-63.097-11.164-75.463-32.583-3.427-5.936-5.63-12.405-6.644-19.332-1.855 14.149.309 26.941 6.644 37.912 12.366 21.42 38.638 32.583 75.463 32.583 10.629 0 22.143-.931 34.45-2.814 50.055-7.658 109.158-30.083 166.421-63.144 57.264-33.061 106.236-73.034 137.895-112.553 27.278-34.051 39.52-65.456 35.819-90.74-2.813 21.449-14.882 46.024-35.819 72.16z"/></g></g><path d="m444.675 273.928c-21.63-27-51.341-54.212-86.257-79.287l-15.386-19.974-18.601-2.722c-5.787-3.593-11.674-7.12-17.652-10.571-5.977-3.451-11.974-6.779-17.979-9.993-5.772 2.272-11.586 4.686-17.428 7.236 0 0 6.904 12.758 19.928 20.278 54.013 31.184 99.901 68.509 129.213 105.098 15.511 19.362 25.253 46.657 28.496 61.239 2.081 9.353 1.488 17.298-1.97 23.289-8.851 15.329-38.167 20.803-78.421 14.646-6.517-.997-13.21-2.271-20.052-3.81l-13.607-12.649-16.279 4.538c-33.823-10.661-70.029-26.844-105.687-47.431-13.025-7.52-25.577-15.397-37.538-23.534l-16.285-20.797-15.952-2.897c-23.641-18.811-43.875-38.443-59.437-57.869-23.031-28.749-33.352-54.509-28.56-70.509 0 0 .172-7.811 2.108-12.822 4.657-12.048 23.741-18.322 48.293-18.322 9.093 0 19.174.815 30.053 2.479 24.605 3.764 79.841 22.542 79.841 22.542l19.913-.915c5.584-2.735 11.163-5.361 16.727-7.876-19.885-8.986-39.578-16.536-58.622-22.477l-14.709-13.593-15.171 5.48c-7.948-1.82-15.727-3.317-23.298-4.475-54.942-8.404-93.976 2.167-109.911 29.77-3.427 5.936-5.638 12.403-6.652 19.33 0 0-2.779 29.149 35.827 81.451 30.072 40.741 80.631 79.493 137.895 112.554 57.264 33.062 116.367 55.487 166.421 63.144 12.31 1.883 23.818 2.814 34.45 2.814 36.821-.001 64.453-10.439 75.463-32.583 7.297-14.677 6.658-28.624 6.658-28.624-2.813-21.447-14.897-46.024-35.832-72.158z" fill="#a0e557"/><g><g fill="#87d654"><path d="m473.85 365.419c-12.365 21.418-38.643 32.582-75.463 32.583-10.632 0-22.139-.931-34.45-2.814-50.055-7.658-109.158-30.083-166.421-63.144-57.265-33.06-106.237-73.033-137.896-112.553-20.938-26.136-33.006-50.711-35.819-72.16-3.701 25.284 8.541 56.69 35.819 90.74 21.63 27 51.34 54.211 86.255 79.286l18.35 21.952 15.627.738c5.79 3.596 11.682 7.125 17.663 10.578 37.998 21.939 76.806 39.193 113.243 50.558l15.111 13.702 14.781-5.587c7.944 1.819 15.719 3.314 23.287 4.472 12.31 1.883 23.818 2.814 34.45 2.814 36.821-.001 63.098-11.166 75.463-32.583 6.335-10.971 8.499-23.763 6.644-37.912-1.015 6.925-3.217 13.395-6.644 19.33z"/><g><path d="m235.425 141.158c-35.202-15.56-69.434-26.201-99.824-30.83-10.88-1.657-20.961-2.466-30.054-2.46-24.552.016-41.905 5.966-48.356 17.156-3.441 5.968-4.025 13.88-1.968 23.182.5-1.639 1.158-3.176 1.98-4.602 6.451-11.19 23.804-17.141 48.356-17.156 9.093-.006 19.174.802 30.054 2.46 6.532.995 13.242 2.268 20.101 3.807l14.75 12.949 15.136-4.855c9.781 3.077 19.761 6.615 29.869 10.588 6.648-3.563 13.305-6.976 19.956-10.239z"/><path d="m420.544 274.594c-29.335-36.571-75.248-73.865-129.281-105.015-6.621-3.817-13.262-7.48-19.902-10.987-6.387 2.793-12.807 5.745-19.246 8.859 13.031 6.281 26.131 13.198 39.16 20.708 13.042 7.518 25.61 15.395 37.587 23.532l17.871 21.951 14.387 1.732c23.637 18.786 43.87 38.395 59.435 57.8 15.564 19.402 25.315 37.438 28.543 52.038 4.878-15.994-5.442-41.806-28.554-70.618z"/></g></g></g><g fill="#ffcf4d"><path d="m310.76 401.178c-2.087 6.692-4.324 13.133-6.718 19.273-14.794 37.94-34.194 60.591-51.894 60.591-17.701 0-37.1-22.651-51.894-60.591-9.042-23.19-15.927-50.529-20.397-80.409-10.908-6.774-21.461-13.784-31.585-20.978 0 0 5.332 59.867 23.139 103.342 21.067 51.435 48.865 80.303 80.738 80.303s60.546-28.518 80.738-80.303c2.781-7.132 1.965-14.492 1.965-14.492-7.889-1.94-15.931-4.191-24.092-6.736z"/><g><path d="m328.836 211.731c1.066 14.427 1.617 29.231 1.617 44.269 0 41.176-4.091 80.619-11.771 115.242 10.207 3.217 20.194 5.926 29.886 8.106 8.377-37.239 12.843-79.47 12.843-123.349 0-6.902-.117-13.761-.336-20.569-10.151-8.079-20.93-16.005-32.239-23.699z"/><g><path d="m175.459 211.724c-11.311 7.695-22.087 15.624-32.241 23.703-.219 6.809-.336 13.669-.336 20.572 0 6.908.117 13.772.336 20.585 10.15 8.076 20.934 15.999 32.24 23.69-1.067-14.429-1.618-29.235-1.618-44.276s.553-29.845 1.619-44.274z"/><g><path d="m155.729 132.648c-4.378 19.466-7.692 40.292-9.853 62.01 10.05-7.219 20.53-14.259 31.375-21.067l1.712-3.324 4.292-27.087-1.142-3.499c-8.99-2.748-17.804-5.101-26.384-7.033z"/><path d="m332.885 80.303c-20.192-51.784-48.865-80.303-80.738-80.303s-60.546 28.519-80.738 80.303c-2.78 7.131-5.36 14.628-7.756 22.415 4.091.938 8.225 1.959 12.4 3.065 4.174 1.105 8.388 2.295 12.637 3.566 0 0 9.168-20.947 11.563-27.09 14.794-37.94 34.194-60.591 51.894-60.591 17.701 0 37.1 22.651 51.894 60.591 9.041 23.188 23.009 91.323 23.009 91.323 5.42 3.403 10.75 6.864 15.981 10.376s10.362 7.076 15.386 10.684c-4.258-42.772-12.964-82.108-25.532-114.339z"/></g></g></g></g><g><g fill="#ffb629"><path d="m348.569 379.349c8.377-37.239 12.843-79.47 12.843-123.349 0-3.106-.03-6.202-.074-9.29-.686 47.56-6.627 92.884-17.115 131.63 1.454.348 2.903.684 4.346 1.009z"/><path d="m334.849 407.92c-.645 1.75-1.297 3.487-1.964 5.197-20.192 51.785-48.865 80.303-80.738 80.303s-60.546-28.518-80.738-80.303c-10.553-27.064-18.378-59.142-23.137-94.055-.8-.568-1.6-1.136-2.395-1.707 4.258 42.773 12.965 82.111 25.532 114.342 20.192 51.785 48.865 80.303 80.738 80.303s60.546-28.518 80.738-80.303c2.781-7.131 5.369-14.616 7.766-22.404-1.925-.441-3.857-.895-5.802-1.373z"/></g><g><g><g fill="#ffb629"><path d="m182.113 139.681c-1.961 10.937-3.587 22.268-4.862 33.909.868-.545 1.739-1.089 2.611-1.631 1.608-10.753 3.534-21.171 5.755-31.191-1.171-.369-2.339-.73-3.504-1.087z"/><path d="m304.042 72.969c-14.794-37.94-34.194-60.591-51.894-60.591-17.701 0-37.1 22.651-51.894 60.591-4.372 11.213-8.231 23.41-11.564 36.383 1.61.482 3.223.972 4.843 1.478 2.087-6.696 4.326-13.138 6.721-19.28 14.794-37.94 34.194-60.591 51.894-60.591 17.701 0 37.1 22.651 51.894 60.591 9.04 23.186 15.921 50.523 20.389 80.397.876.544 1.744 1.095 2.616 1.642-4.139-37.774-11.961-72.295-23.005-100.62z"/></g></g></g></g><path d="m299.766 246.708c-4.335-22.345-24.007-39.216-47.619-39.216s-43.284 16.871-47.619 39.216c0 0-.012 48.51 47.619 48.51s47.619-48.51 47.619-48.51z" fill="#ffcf4d"/><path d="m252.147 285.928c-23.612 0-43.274-16.874-47.609-39.218-.584 3.008-.899 6.112-.899 9.29 0 26.79 21.718 48.508 48.508 48.508s48.508-21.718 48.508-48.508c0-3.178-.315-6.282-.899-9.29-4.335 22.344-23.997 39.218-47.609 39.218z" fill="#ffb629"/><path d="m127.637 102.36c-3.991-13.299-16.325-22.989-30.923-22.989s-26.933 9.69-30.923 22.989c-.883 2.943-.04 32.283 30.923 32.283s31.806-29.34 30.923-32.283z" fill="#ff5876"/><path d="m96.713 125.353c-14.598 0-26.927-9.692-30.917-22.991-.883 2.943-1.364 6.06-1.364 9.29 0 17.828 14.453 32.281 32.281 32.281s32.281-14.452 32.281-32.281c0-3.23-.48-6.347-1.364-9.29-3.99 13.298-16.319 22.991-30.917 22.991z" fill="#e6485d"/><path d="m487.487 181.378c-3.991-13.299-16.325-22.989-30.923-22.989s-26.933 9.69-30.923 22.989c-.883 2.943-.04 32.283 30.923 32.283 30.963-.001 31.806-29.341 30.923-32.283z" fill="#86dcff"/><path d="m456.564 204.37c-14.598 0-26.927-9.692-30.917-22.99-.883 2.943-1.364 6.06-1.364 9.29 0 17.828 14.453 32.281 32.281 32.281s32.281-14.453 32.281-32.281c0-3.23-.48-6.348-1.363-9.29-3.991 13.298-16.32 22.99-30.918 22.99z" fill="#56caed"/><path d="m234.562 452.542c-3.991-13.299-16.325-22.989-30.923-22.989s-26.933 9.69-30.923 22.989c0 0-1.357 32.283 30.923 32.283 32.281 0 30.923-32.283 30.923-32.283z" fill="#a0e557"/><path d="m203.639 475.535c-14.598 0-26.926-9.692-30.917-22.991-.883 2.943-1.364 6.06-1.364 9.29 0 17.828 14.452 32.281 32.281 32.281 17.828 0 32.281-14.453 32.281-32.281 0-3.23-.48-6.348-1.364-9.29-3.99 13.298-16.319 22.991-30.917 22.991z" fill="#87d654"/></g></g></svg>