<svg id="Capa_1" enable-background="new 0 0 512 512" height="512" viewBox="0 0 512 512" width="512" xmlns="http://www.w3.org/2000/svg"><g><g><g><path d="m410.253 453.535c-3.589 0-7.377-.268-11.365-.804-16.898-2.274-36.987-9.327-59.708-20.963-45.843-23.478-97.983-63.301-146.815-112.133s-88.655-100.972-112.133-146.815c-11.636-22.721-18.689-42.81-20.963-59.707-2.564-19.06 1.012-33.601 10.627-43.217 9.617-9.617 24.157-13.194 43.217-10.627 16.898 2.274 36.987 9.326 59.708 20.963 45.843 23.478 97.983 63.301 146.815 112.132s88.654 100.972 112.132 146.816c11.636 22.721 18.689 42.81 20.963 59.708 2.564 19.06-1.012 33.6-10.627 43.217-7.605 7.603-18.289 11.43-31.851 11.43zm-308.479-379.995c-9.342 0-16.604 2.294-21.271 6.962-12.712 12.712-7.823 44.667 13.079 85.481 22.785 44.489 61.633 95.29 109.39 143.046 47.755 47.756 98.557 86.605 143.046 109.39 40.815 20.902 72.769 25.791 85.48 13.08 12.712-12.712 7.823-44.668-13.079-85.481-22.785-44.489-61.633-95.291-109.39-143.047-47.755-47.755-98.557-86.604-143.046-109.388-25.827-13.228-48.108-20.043-64.209-20.043z" fill="#8ac9fe"/></g><g><path d="m113.155 367.26c-38.97 0-70.643-5.574-90.209-16.871-11.696-6.752-19.016-15.397-21.758-25.694-3.491-13.114.728-27.485 12.539-42.716 10.468-13.499 26.68-27.387 48.185-41.28 43.397-28.035 104.117-53.404 170.973-71.434 109.844-29.623 212.792-32.699 256.171-7.653 11.696 6.753 19.016 15.398 21.758 25.695 3.491 13.113-.728 27.485-12.539 42.714-10.468 13.499-26.681 27.388-48.185 41.28-43.397 28.035-104.117 53.404-170.973 71.434-60.3 16.261-118.533 24.525-165.962 24.525zm286.351-207.527c-46.186 0-103.821 8.13-162.715 24.013-65.398 17.636-124.613 42.337-166.74 69.552-38.655 24.971-58.979 50.219-54.368 67.538 1.678 6.304 6.645 11.877 14.763 16.564 17.268 9.97 46.215 14.866 82.049 14.867 46.186.002 103.822-8.13 162.716-24.013 65.398-17.636 124.613-42.337 166.74-69.552 38.655-24.97 58.979-50.218 54.368-67.537-1.678-6.304-6.645-11.877-14.763-16.564-17.269-9.971-46.216-14.868-82.05-14.868z" fill="#8ac9fe"/></g><g><path d="m196.418 511.999c-3.099 0-6.138-.395-9.113-1.186-10.297-2.742-18.942-10.062-25.694-21.758-25.045-43.38-21.97-146.327 7.654-256.17 18.03-66.857 43.399-127.577 71.434-170.974 13.892-21.504 27.78-37.717 41.279-48.185 15.232-11.811 29.604-16.029 42.716-12.538 10.297 2.741 18.942 10.061 25.694 21.758 25.045 43.38 21.969 146.326-7.654 256.17-18.03 66.857-43.399 127.576-71.434 170.973-13.892 21.505-27.78 37.717-41.279 48.185-11.776 9.132-23.038 13.725-33.603 13.725zm119.352-496.962c-16.978 0-39.838 19.976-62.472 55.013-27.215 42.127-51.915 101.343-69.552 166.74-28.206 104.588-31.966 205.239-9.146 244.765 4.687 8.118 10.26 13.085 16.564 14.763 1.62.432 3.312.644 5.065.645 16.978.002 39.838-19.976 62.472-55.014 27.215-42.127 51.915-101.342 69.552-166.74 28.207-104.587 31.967-205.238 9.147-244.764-4.687-8.118-10.26-13.085-16.564-14.763-1.621-.431-3.313-.645-5.066-.645zm-139.264 219.8h.01z" fill="#b3dafe"/></g><circle cx="355.793" cy="68.409" fill="#fedf30" r="25.702"/><circle cx="153.996" cy="433.485" fill="#60b7ff" r="25.702"/><ellipse cx="426.966" cy="353.637" fill="#fea95c" rx="25.702" ry="25.702" transform="matrix(.924 -.383 .383 .924 -102.83 190.312)"/><circle cx="74.45" cy="146.934" fill="#22b37f" r="25.702"/></g><g><ellipse cx="256" cy="256" fill="#fedf30" rx="105.884" ry="105.884" transform="matrix(.707 -.707 .707 .707 -106.039 256)"/><path d="m287.699 154.945c26.756 19.217 44.187 50.599 44.187 86.056 0 58.478-47.406 105.884-105.884 105.884-11.043 0-21.69-1.693-31.699-4.829 17.373 12.478 38.676 19.828 61.697 19.828 58.478 0 105.884-47.406 105.884-105.884 0-47.435-31.193-87.582-74.185-101.055z" fill="#fac600"/><path d="m275.454 184.065c5.99-.048 9.983 5.446 7.977 10.626-5.331 13.765-11.233 27.357-16.988 40.952-.348.823-.099 1.166.583 1.56 10.775 6.22 21.526 12.483 32.312 18.685 5.314 3.055 6.16 9.273 1.726 13.479-19.535 18.531-39.101 37.03-58.66 55.537-3.281 3.104-6.511 3.808-9.874 2.18-3.663-1.773-5.461-5.942-3.966-9.807 2.041-5.274 4.276-10.472 6.448-15.694 3.503-8.424 7.008-16.849 10.558-25.254.362-.858.059-1.163-.602-1.543-10.909-6.274-21.927-12.421-32.7-18.925-5.015-3.028-5.608-9.201-1.332-13.252 19.547-18.521 39.152-36.983 58.66-55.544 1.799-1.71 3.773-2.932 5.858-3z" fill="#fea95c"/><path d="m299.338 255.888c-10.786-6.202-21.537-12.464-32.312-18.685-.682-.394-.931-.737-.583-1.56 5.754-13.595 11.656-27.187 16.988-40.952 2.006-5.18-1.987-10.675-7.977-10.627-2.085.068-4.059 1.29-5.859 3.002-7.031 6.689-14.081 13.357-21.13 20.028-.852 2.769-5.647 12.781-8.783 20.568-2.079 5.163-.012 11.065 4.805 13.854 8.282 4.795 16.557 9.601 24.853 14.371 5.314 3.056 6.16 9.274 1.726 13.48-12.449 11.81-24.918 23.599-37.383 35.393-1.743 4.158-3.493 8.314-5.12 12.518-1.495 3.864.303 8.034 3.966 9.807 3.363 1.628 6.594.924 9.874-2.18 19.559-18.507 39.125-37.006 58.66-55.537 4.435-4.206 3.589-10.424-1.725-13.48z" fill="#fe9738"/></g></g></svg>