<svg id="Layer_1" enable-background="new 0 0 512 512" height="512" viewBox="0 0 512 512" width="512" xmlns="http://www.w3.org/2000/svg"><g><path d="m320.88 497h-129.76l10.18-31.29 9.7-29.79h90z" fill="#aec9d6"/><path d="m320.88 497h-129.76l10.18-31.29h63.57c11.43 0 19.65-10.97 16.43-21.93l-2.3-7.86h22z" fill="#8fb2bc"/><path d="m512 130.66v253.09l-27.44 2.14-228.56 17.86-256-20v-253.09l256-20 228.56 17.86z" fill="#d9f9f8"/><path d="m512 130.66v253.09l-27.44 2.14v-257.37z" fill="#c1eaf4"/><path d="m512 383.75v46.87c0 7.07-5.73 12.8-12.8 12.8h-486.4c-7.07 0-12.8-5.73-12.8-12.8v-46.87z" fill="#466175"/><path d="m512 83.79v46.87h-512v-46.87c0-7.07 5.73-12.8 12.8-12.8h486.4c7.07 0 12.8 5.73 12.8 12.8z" fill="#466175"/><g fill="#2d4859"><path d="m512 83.79v46.87h-27.44v-59.67h14.64c7.07 0 12.8 5.73 12.8 12.8z"/><path d="m484.56 383.75h27.44v46.87c0 7.07-5.73 12.8-12.8 12.8h-486.4c-7.07 0-12.8-5.73-12.8-12.8v-17.04h463.9c11.41 0 20.66-9.25 20.66-20.66z"/></g><path d="m383.5 100.57v101.64l-20.17 11.38-107.33 60.58-127.5-71.96v-101.64c0-4.14 3.36-7.5 7.5-7.5h240c4.14 0 7.5 3.36 7.5 7.5z" fill="#466175"/><path d="m376 93.07h-240c-4.14 0-7.5 3.36-7.5 7.5v32.04l115.24 46.96c3.91 1.6 8.04 2.4 12.26 2.4s8.35-.8 12.26-2.4l95.07-38.741v72.761l20.17-11.38v-101.64c0-4.14-3.36-7.5-7.5-7.5z" fill="#2d4859"/><path d="m383.5 202.21v61.54c0 3.05-1.85 5.8-4.67 6.95l-120 48.9c-.91.37-1.87.56-2.83.56s-1.92-.19-2.83-.56l-120-48.9c-2.82-1.15-4.67-3.9-4.67-6.95v-61.54l127.5 51.96 107.33-43.74z" fill="#4fe8bc"/><path d="m383.5 202.21v61.54c0 3.05-1.85 5.8-4.67 6.95l-120 48.9c-.91.37-1.87.56-2.83.56s-1.92-.19-2.83-.56l-120-48.9c-2.82-1.15-4.67-3.9-4.67-6.95v-19.79l124.67 51.55c.91.37 1.87.56 2.83.56s1.92-.19 2.83-.56l99.83-39.81c2.82-1.15 4.67-3.9 4.67-6.95v-38.32z" fill="#17c6a5"/><path d="m361 500.55c0 6.32-5.13 11.45-11.46 11.45h-187.08c-3.16 0-6.03-1.28-8.1-3.36-2.08-2.07-3.36-4.93-3.36-8.09 0-1.26.13-2.48.37-3.67 1.69-8.48 9.19-14.87 18.17-14.87h172.92c5.12 0 9.76 2.07 13.11 5.43s5.43 7.99 5.43 13.11z" fill="#466175"/><path d="m355.57 487.44c3.35 3.36 5.43 7.99 5.43 13.11 0 6.32-5.13 11.45-11.46 11.45h-187.08c-3.16 0-6.03-1.28-8.1-3.36-2.08-2.07-3.36-4.93-3.36-8.09 0-1.26.13-2.48.37-3.67h175.67c6.33 0 11.46-5.13 11.46-11.45 0-1.17-.11-2.31-.32-3.42h4.28c5.12 0 9.76 2.07 13.11 5.43z" fill="#2d4859"/><path d="m433.029 71.541-174.199-70.986c-1.814-.739-3.846-.739-5.66 0l-174.199 70.986c-2.824 1.15-4.67 3.896-4.67 6.945s1.846 5.795 4.67 6.945l174.199 70.987c.907.37 1.869.555 2.83.555s1.923-.185 2.83-.555l174.199-70.987c2.824-1.15 4.67-3.896 4.67-6.945s-1.846-5.795-4.67-6.945z" fill="#4fe8bc"/><path d="m262.945 85.686c-1.563-3.836-5.944-5.679-9.775-4.115l-82.3 33.537c-2.824 1.15-4.67 3.896-4.67 6.945v199.962c0 4.142 3.358 7.5 7.5 7.5s7.5-3.358 7.5-7.5v-194.925l77.63-31.629c3.836-1.563 5.679-5.94 4.115-9.775z" fill="#fff683"/></g></svg>