<svg height="512pt" viewBox="-65 0 511 512" width="512pt" xmlns="http://www.w3.org/2000/svg"><path d="m261 403.125c0-40.496094-31.261719-73.328125-69.824219-73.328125s-69.820312 32.832031-69.820312 73.328125 31.257812 108.875 69.820312 108.875 69.824219-68.378906 69.824219-108.875zm0 0" fill="#eea849"/><path d="m90.117188 275.203125c-41.035157 0-89.617188 37.585937-89.617188 105.226563 0 33.472656 6.597656 70.46875 32.289062 70.46875 46.40625 0 26.855469-102.960938 74.597657-102.960938zm0 0" fill="#f7ef87"/><path d="m55.636719 283.621094c1 26.78125 3.871093 53.210937 8.617187 78.402344 1.570313 8.34375 4.871094 15.992187 9.472656 22.628906 6.101563-19.976563 14.410157-36.714844 33.660157-36.714844l-17.269531-72.734375c-11.3125 0-23.195313 2.863281-34.480469 8.417969zm0 0" fill="#efd176"/><path d="m292.238281 275.203125c41.03125 0 89.617188 37.585937 89.617188 105.226563 0 33.472656-6.597657 70.46875-32.292969 70.46875-46.402344 0-26.851562-102.960938-74.597656-102.960938zm0 0" fill="#f7ef87"/><path d="m292.238281 275.203125-17.273437 72.734375c19.25 0 27.558594 16.738281 33.664062 36.714844 4.597656-6.632813 7.898438-14.285156 9.46875-22.628906 4.75-25.191407 7.621094-51.621094 8.621094-78.402344-11.285156-5.554688-23.167969-8.417969-34.480469-8.417969zm0 0" fill="#efd176"/><path d="m286.503906 356.070312c21.339844-113.242187 3.230469-255.796874-62.722656-340.21875-16.511719-21.132812-48.695312-21.132812-65.207031 0-65.957031 84.421876-84.0625 226.976563-62.722657 340.21875 2.386719 12.675782 13.457032 21.851563 26.351563 21.851563h137.945313c12.898437 0 23.964843-9.179687 26.355468-21.851563zm0 0" fill="#a3defe"/><path d="m173.546875 3.902344c-5.652344 2.640625-10.8125 6.621094-14.972656 11.949218-65.957031 84.417969-84.0625 226.972657-62.722657 340.21875 2.386719 12.671876 13.457032 21.851563 26.351563 21.851563h74.574219c-50.027344-51.679687-53.773438-241.054687-23.230469-374.019531zm0 0" fill="#7acefa"/><path d="m89.660156 311.792969c1.417969 15.066406 3.476563 29.84375 6.167969 44.15625 2.390625 12.714843 13.425781 21.972656 26.367187 21.972656h137.960938c12.941406 0 23.976562-9.257813 26.367188-21.972656 2.691406-14.3125 4.75-29.089844 6.167968-44.15625zm0 0" fill="#6e7ca8"/><path d="m89.660156 311.792969c1.417969 15.066406 3.476563 29.84375 6.167969 44.15625 2.390625 12.714843 13.425781 21.972656 26.367187 21.972656h74.578126c-13.203126-13.640625-23.179688-36.875-30.160157-66.128906zm0 0" fill="#54669e"/><path d="m191.175781 275.203125c-9.429687 0-17.070312 7.644531-17.070312 17.074219v141.546875c0 9.429687 7.640625 17.074219 17.070312 17.074219 9.429688 0 17.074219-7.644532 17.074219-17.074219v-141.546875c0-9.429688-7.644531-17.074219-17.074219-17.074219zm0 0" fill="#f7ef87"/><path d="m260.082031 178.484375c0 38.054687-30.851562 68.902344-68.90625 68.902344-38.054687 0-68.902343-30.847657-68.902343-68.902344s30.847656-68.90625 68.902343-68.90625c38.054688 0 68.90625 30.851563 68.90625 68.90625zm0 0" fill="#fff"/><path d="m156.636719 118.871094c-20.539063 11.925781-34.363281 34.148437-34.363281 59.609375 0 25.171875 13.503906 47.183593 33.65625 59.207031-2.695313-37.34375-2.378907-78.246094.707031-118.816406zm0 0" fill="#f9eab9"/><g fill="#eea849"><path d="m202.574219 185.980469h-38.605469c-4.140625 0-7.5-3.355469-7.5-7.5 0-4.140625 3.359375-7.5 7.5-7.5h38.605469c5.589843 0 10.136719-4.546875 10.136719-10.136719s-4.546876-10.136719-10.136719-10.136719h-38.605469c-4.140625 0-7.5-3.359375-7.5-7.5 0-4.144531 3.359375-7.5 7.5-7.5h38.605469c13.859375 0 25.136719 11.273438 25.136719 25.136719s-11.277344 25.136719-25.136719 25.136719zm0 0"/><path d="m202.574219 221.257812h-38.605469c-4.140625 0-7.5-3.355468-7.5-7.5 0-4.144531 3.359375-7.5 7.5-7.5h38.605469c5.589843 0 10.136719-4.546874 10.136719-10.136718s-4.546876-10.140625-10.136719-10.140625c-4.140625 0-7.5-3.355469-7.5-7.5 0-4.140625 3.359375-7.5 7.5-7.5 13.859375 0 25.136719 11.277343 25.136719 25.140625 0 13.859375-11.277344 25.136718-25.136719 25.136718zm0 0"/><path d="m177.441406 232.734375c-4.144531 0-7.5-3.355469-7.5-7.5v-93.503906c0-4.140625 3.355469-7.5 7.5-7.5 4.140625 0 7.5 3.359375 7.5 7.5v93.503906c0 4.144531-3.359375 7.5-7.5 7.5zm0 0"/><path d="m198.113281 150.707031c-4.144531 0-7.5-3.355469-7.5-7.5v-11.003906c0-4.144531 3.355469-7.5 7.5-7.5 4.140625 0 7.5 3.355469 7.5 7.5v11.003906c0 4.144531-3.359375 7.5-7.5 7.5zm0 0"/><path d="m198.113281 232.261719c-4.144531 0-7.5-3.355469-7.5-7.5v-11.003907c0-4.144531 3.355469-7.5 7.5-7.5 4.140625 0 7.5 3.355469 7.5 7.5v11.003907c0 4.144531-3.359375 7.5-7.5 7.5zm0 0"/></g><path d="m158.574219 15.851562c-12.921875 16.535157-23.996094 35.3125-33.304688 55.652344h131.816407c-9.308594-20.339844-20.386719-39.113281-33.304688-55.652344-16.511719-21.136718-48.695312-21.136718-65.207031 0zm0 0" fill="#6e7ca8"/><path d="m158.574219 15.851562c-12.921875 16.535157-23.996094 35.3125-33.304688 55.652344h36.265625c3.085938-23.453125 7.105469-46.253906 12.011719-67.601562-5.652344 2.640625-10.8125 6.621094-14.972656 11.949218zm0 0" fill="#54669e"/><path d="m1.191406 398.28125c2.242188 27.542969 10.445313 52.617188 31.597656 52.617188 23.546876 0 30.109376-26.503907 37.101563-52.617188zm0 0" fill="#efd176"/><path d="m312.464844 398.28125c6.988281 26.113281 13.554687 52.617188 37.097656 52.617188 21.152344 0 29.359375-25.074219 31.597656-52.617188zm0 0" fill="#efd176"/><path d="m174.105469 398.28125v35.542969c0 9.429687 7.644531 17.074219 17.070312 17.074219 9.429688 0 17.074219-7.644532 17.074219-17.074219v-35.542969zm0 0" fill="#efd176"/><path d="m176.550781 46.855469c0 4.117187-3.335937 7.453125-7.453125 7.453125-4.117187 0-7.453125-3.335938-7.453125-7.453125 0-4.117188 3.335938-7.453125 7.453125-7.453125 4.117188 0 7.453125 3.335937 7.453125 7.453125zm0 0" fill="#54669e"/><path d="m220.710938 46.855469c0 4.117187-3.335938 7.453125-7.453126 7.453125-4.117187 0-7.453124-3.335938-7.453124-7.453125 0-4.117188 3.335937-7.453125 7.453124-7.453125 4.117188 0 7.453126 3.335937 7.453126 7.453125zm0 0" fill="#54669e"/><path d="m142.382812 344.855469c0 4.117187-3.335937 7.457031-7.453124 7.457031-4.117188 0-7.453126-3.339844-7.453126-7.457031 0-4.113281 3.335938-7.453125 7.453126-7.453125 4.117187 0 7.453124 3.339844 7.453124 7.453125zm0 0" fill="#6e7ca8"/><path d="m254.878906 344.855469c0 4.117187-3.339844 7.457031-7.453125 7.457031-4.117187 0-7.457031-3.339844-7.457031-7.457031 0-4.113281 3.339844-7.453125 7.457031-7.453125 4.113281 0 7.453125 3.339844 7.453125 7.453125zm0 0" fill="#54669e"/></svg>