<?xml version="1.0" encoding="iso-8859-1"?>
<!-- Generator: Adobe Illustrator 19.0.0, SVG Export Plug-In . SVG Version: 6.00 Build 0)  -->
<svg version="1.1" id="Capa_1" xmlns="http://www.w3.org/2000/svg" xmlns:xlink="http://www.w3.org/1999/xlink" x="0px" y="0px"
	 viewBox="0 0 512.001 512.001" style="enable-background:new 0 0 512.001 512.001;" xml:space="preserve">
<path style="fill:#97D4AC;" d="M296.578,224.216v-67.087h-81.161v67.442c0,12.324-7.204,23.398-18.311,28.741
	c-45.639,21.952-77.14,68.624-77.14,122.656c0,75.221,61.769,136.547,136.988,136.029c74.688-0.514,135.076-61.22,135.076-136.028
	c0-54.065-31.541-100.762-77.226-122.698C303.643,247.913,296.578,236.595,296.578,224.216z"/>
<path style="opacity:0.1;enable-background:new    ;" d="M314.803,253.271c-11.16-5.358-18.226-16.676-18.226-29.056v-67.087
	h-52.345v67.087c0,12.38,7.065,23.697,18.226,29.056c45.685,21.935,77.226,68.632,77.226,122.698
	c0,66.154-47.226,121.268-109.8,133.495c8.76,1.721,17.812,2.598,27.07,2.534c74.688-0.514,135.076-61.22,135.076-136.028
	C392.029,321.904,360.487,275.207,314.803,253.271z"/>
<circle style="fill:#FFFFFF;" cx="256" cy="370.451" r="58.381"/>
<path style="fill:#6CA87E;" d="M317.565,162.434H194.43c-5.725,0-10.366-4.641-10.366-10.366v-10.392
	c0-5.725,4.641-10.366,10.366-10.366h123.135c5.725,0,10.366,4.641,10.366,10.366v10.392
	C327.931,157.793,323.29,162.434,317.565,162.434z"/>
<g>
	<circle style="fill:#FFC433;" cx="255.305" cy="20.975" r="20.975"/>
	<circle style="fill:#FFC433;" cx="300.512" cy="76.527" r="13.548"/>
	<circle style="fill:#FFC433;" cx="225.607" cy="86.629" r="13.548"/>
</g>
<g>
	<path style="fill:#F23466;" d="M111.286,320.542c-36.41-20.76-49.866-32.113-54.793-37.376c9.963,0.113,34.944,4.59,83.825,21.233
		c2.783-4.488,5.808-8.811,9.08-12.932c-0.633-0.474-1.348-0.859-2.135-1.13c-28.388-9.726-52.562-16.676-69.909-20.098
		c-23.423-4.618-34.483-3.057-38.176,5.388c-4.02,9.193,5.07,18.279,14.491,25.954c9.585,7.81,23.883,17.291,42.495,28.18
		c8.448,4.944,17.604,10.069,27.344,15.32c1.209-5.204,2.717-10.291,4.504-15.246C122.199,326.681,116.61,323.578,111.286,320.542z"
		/>
	<path style="fill:#F23466;" d="M451.972,434.393c-13.559-10.014-34.069-22.573-59.314-36.324c-0.736-0.401-1.509-0.667-2.292-0.813
		c-0.826,5.255-1.95,10.41-3.36,15.446c42.659,23.347,61.877,37.96,68.511,44.962c-7.216-0.046-24.692-2.223-64.632-14.853
		c-4.513-1.427-9.172-2.948-13.938-4.542c-2.441,4.73-5.148,9.299-8.107,13.685c8.917,3.012,17.458,5.765,25.543,8.221
		c20.63,6.271,37.298,10.332,49.539,12.068c3.953,0.56,7.992,0.991,11.779,0.991c7.738,0,14.416-1.801,17.115-7.973
		C477.313,454.984,465.456,444.352,451.972,434.393z"/>
	<path style="fill:#F23466;" d="M458.759,291.03c-5.127,5.067-19.019,15.884-56.212,35.205c-5.383,2.797-11.026,5.648-16.889,8.543
		c1.592,5.017,2.908,10.157,3.915,15.407c9.865-4.833,19.148-9.565,27.727-14.143c19.024-10.155,33.679-19.069,43.562-26.498
		c9.715-7.302,19.153-16.026,15.494-25.37c-3.358-8.578-14.331-10.573-37.876-6.886c-17.432,2.731-41.813,8.714-70.511,17.301
		c-0.804,0.24-1.538,0.603-2.193,1.057c3.109,4.242,5.972,8.672,8.581,13.267C423.737,294.239,448.799,290.736,458.759,291.03z"/>
	<path style="fill:#F23466;" d="M118.382,437.485c-40.409,11.063-57.954,12.547-65.163,12.316
		c6.915-6.749,26.75-20.637,70.447-42.364c-1.215-5.083-2.139-10.276-2.759-15.559c-0.789,0.115-1.573,0.35-2.326,0.723
		c-25.827,12.776-46.867,24.55-60.845,34.045c-13.897,9.439-26.193,19.617-22.097,30.072c2.682,6.851,10.307,8.677,18.95,8.676
		c3.144,0,6.424-0.24,9.649-0.571c12.3-1.256,29.114-4.661,49.974-10.121c8.266-2.163,17.01-4.61,26.147-7.307
		c-2.793-4.495-5.328-9.164-7.591-13.984C127.844,434.846,123.036,436.211,118.382,437.485z"/>
	<path style="fill:#F23466;" d="M276.026,399.859c41.745-16.534,80.877-33.669,113.547-49.675c-1.008-5.25-2.322-10.39-3.915-15.407
		c-34.815,17.183-77.61,35.866-122.676,53.51c-2.467,0.966-4.929,1.922-7.389,2.873c-2.422-1.047-4.845-2.099-7.273-3.161
		c-44.262-19.355-86.225-39.66-120.31-58.164c-1.787,4.956-3.295,10.043-4.504,15.246c31.981,17.242,70.342,35.855,111.328,53.972
		c-36.631,13.685-71.756,25.51-102.068,34.355c2.263,4.82,4.798,9.489,7.591,13.984c34.059-10.053,73.651-23.635,114.906-39.444
		c40.727,17.462,79.87,32.618,113.579,44.006c2.96-4.386,5.666-8.956,8.107-13.685C346.942,428.235,312.203,415.011,276.026,399.859
		z"/>
</g>
<g>
</g>
<g>
</g>
<g>
</g>
<g>
</g>
<g>
</g>
<g>
</g>
<g>
</g>
<g>
</g>
<g>
</g>
<g>
</g>
<g>
</g>
<g>
</g>
<g>
</g>
<g>
</g>
<g>
</g>
</svg>
