<svg height="464pt" viewBox="-20 0 464 464" width="464pt" xmlns="http://www.w3.org/2000/svg"><path d="m424 192c0 106.039062-85.960938 192-192 192s-192-85.960938-192-192 85.960938-192 192-192 192 85.960938 192 192zm0 0" fill="#4db5ff"/><path d="m330.398438 27.144531c71.953124 66.808594 81.90625 177.136719 23.074218 255.742188-58.832031 78.605469-167.488281 100.164062-251.871094 49.96875 53.832032 49.984375 131.464844 64.875 199.96875 38.347656 68.503907-26.523437 115.871094-89.808594 122.003907-163.015625 6.132812-73.203125-30.039063-143.488281-93.175781-181.042969zm0 0" fill="#3596d8"/><path d="m290.175781 202.695312-19.777343-14.128906c-4.199219-2.996094-9.078126-4.902344-14.199219-5.542968l-41.199219-5.152344c-9.46875-1.179688-17.867188-6.648438-22.777344-14.832032l-7.421875-12.421874c-5.464843-9.105469-5.894531-20.371094-1.144531-29.863282l8.320312-16.648437c1.613282-3.226563 4.859376-5.320313 8.464844-5.457031 3.601563-.136719 6.996094 1.699218 8.855469 4.792968 2.167969 3.613282 6.390625 5.453125 10.515625 4.582032 4.125-.867188 7.246094-4.257813 7.773438-8.4375l3.933593-31.457032c.335938-2.742187.3125-5.515625-.070312-8.25l-6.449219-45.109375c-.636719-4.457031-.296875-9 .992188-13.3125l.398437-1.3125c-66.40625 1.910157-127.097656 38.035157-160.4375 95.496094l2.976563 23.773437c1.792968 14.382813 13.296874 25.609376 27.71875 27.050782l39.421874 3.941406c9.996094 1 18.890626 6.769531 23.875 15.488281l20 34.945313c2.667969 4.695312 4.066407 10.007812 4.054688 15.40625v23.9375c.003906 9.9375 4.761719 19.273437 12.800781 25.113281l56 40.75c4.300781 3.128906 9.875 3.917969 14.875 2.101563 5-1.816407 8.769531-5.996094 10.058594-11.15625l8.160156-32.648438c1.371094-5.449219 4.195313-10.425781 8.167969-14.398438 6.464844-6.453124 9.761719-15.425781 9.011719-24.527343-.75-9.101563-5.46875-17.414063-12.898438-22.722657zm0 0" fill="#ffbc05"/><path d="m112.222656 269.480469-18.261718-12.175781c-3.640626-2.425782-8.117188-3.253907-12.386719-2.292969-4.269531.960937-7.957031 3.628906-10.207031 7.378906l-10.261719 17.097656c10.308593 20.097657 24.074219 38.222657 40.664062 53.550781 13.421875-3.578124 23.503907-14.691406 25.761719-28.402343 2.253906-13.707031-3.734375-27.46875-15.308594-35.15625zm0 0" fill="#ffbc05"/><path d="m316.351562 404.703125 78.65625-20.976563c6.917969-1.84375 14.304688-.367187 19.980469 3.996094 5.679688 4.363282 9.007813 11.117188 9.011719 18.277344.011719 10.589844-7.183594 19.824219-17.457031 22.398438l-78.542969 19.601562h-272v-80h48l36.800781-10.503906c12.746094-3.644532 25.941407-5.492188 39.199219-5.496094 13.257812.003906 26.453125 1.851562 39.199219 5.496094l36.800781 10.503906h40c13.253906 0 24 10.746094 24 24s-10.746094 24-24 24h-80" fill="#f2cba7"/><path d="m0 344h64v120h-64zm0 0" fill="#354468"/><path d="m296 432h-80v-16h80c8.574219-.015625 16.496094-4.585938 20.800781-12l13.855469 8c-7.175781 12.355469-20.371094 19.96875-34.65625 20zm0 0" fill="#e1b494"/><path d="m352.089844 42.238281-2.769532 12.449219c-3.496093 15.753906-3.28125 32.105469.632813 47.761719l9.535156 38.160156c5.519531 22.078125 18.136719 41.734375 35.910157 55.949219 8.351562 6.683594 15.621093 14.613281 21.554687 23.511718l4 5.96875c12.5625-69.25-13.851563-139.816406-68.800781-183.800781zm0 0" fill="#ffbc05"/><path d="m352.089844 42.238281-1.496094 6.730469c26.863281 33.855469 41.457031 75.8125 41.40625 119.03125-.027344 8.105469-.558594 16.203125-1.601562 24.238281 1.601562 1.472657 3.257812 2.945313 4.976562 4.320313 8.351562 6.683594 15.621094 14.613281 21.554688 23.511718l4 5.96875c12.5625-69.25-13.851563-139.816406-68.800782-183.800781zm0 0" fill="#dd970a"/><path d="m48 440c0 4.417969-3.582031 8-8 8s-8-3.582031-8-8 3.582031-8 8-8 8 3.582031 8 8zm0 0" fill="#ffbc05"/></svg>