<?xml version="1.0" encoding="iso-8859-1"?>
<!-- Generator: Adobe Illustrator 19.0.0, SVG Export Plug-In . SVG Version: 6.00 Build 0)  -->
<svg version="1.1" id="Capa_1" xmlns="http://www.w3.org/2000/svg" xmlns:xlink="http://www.w3.org/1999/xlink" x="0px" y="0px"
	 viewBox="0 0 512 512" style="enable-background:new 0 0 512 512;" xml:space="preserve">
<path style="fill:#8E9AA9;" d="M510.518,395.391c-3.36-18.722-12.271-35.751-25.768-49.248
	c-13.497-13.498-30.526-22.408-49.248-25.768c-17.373-3.117-35.053-1.296-51.312,5.264L187.888,129.337
	c6.559-16.26,8.382-33.938,5.264-51.312c-3.36-18.721-12.271-35.75-25.768-49.248C153.887,15.279,136.858,6.37,118.136,3.01
	c-18.287-3.28-36.918-1.09-53.872,6.342c-2.56,1.121-3.216,4.581-1.236,6.561l72.906,72.906l-40.028,40.028L22.999,55.942
	c-1.978-1.98-5.44-1.325-6.561,1.236c-7.431,16.954-9.623,35.583-6.341,53.871c3.36,18.722,12.271,35.751,25.768,49.248
	c13.498,13.498,30.527,22.408,49.248,25.768c17.375,3.117,35.053,1.296,51.312-5.264l196.303,196.303
	c-6.559,16.26-8.382,33.938-5.263,51.312c3.36,18.721,12.271,35.75,25.768,49.248c13.497,13.498,30.527,22.408,49.248,25.768
	c5.519,0.99,11.068,1.483,16.593,1.483c12.785,0,25.441-2.634,37.279-7.824c2.56-1.121,3.216-4.581,1.236-6.561l-72.905-72.906
	l40.028-40.028l72.906,72.905c1.978,1.98,5.44,1.325,6.561-1.236C511.607,432.31,513.8,413.681,510.518,395.391z"/>
<path style="fill:#7C899B;" d="M455.384,488.326c-5.312,0.937-10.699,1.415-16.11,1.415c-5.525,0-11.074-0.492-16.593-1.483
	c-18.721-3.36-35.75-12.271-49.248-25.768c-13.498-13.497-22.408-30.527-25.768-49.248c-3.118-17.374-1.296-35.052,5.264-51.312
	L156.626,165.628c-16.259,6.559-33.937,8.381-51.312,5.264c-18.721-3.36-35.75-12.271-49.248-25.768
	c-13.498-13.497-22.408-30.526-25.768-49.248c-1.96-10.92-1.952-21.96-0.059-32.694l-7.242-7.242
	c-1.978-1.98-5.44-1.325-6.561,1.236c-7.431,16.955-9.623,35.584-6.341,53.872c3.36,18.722,12.271,35.751,25.768,49.248
	c13.498,13.498,30.527,22.408,49.248,25.768c17.375,3.117,35.053,1.296,51.312-5.264l196.303,196.303
	c-6.559,16.26-8.382,33.938-5.263,51.312c3.36,18.721,12.271,35.75,25.768,49.248c13.497,13.498,30.527,22.408,49.248,25.768
	c5.519,0.99,11.068,1.483,16.593,1.483c12.785,0,25.441-2.634,37.279-7.824c2.56-1.121,3.216-4.581,1.236-6.561L455.384,488.326z"/>
<path style="fill:#C7CCD4;" d="M419.801,113.544l-22.874-22.874c-3.159-3.157-8.278-3.157-11.437,0L116.733,359.428
	c-3.158,3.159-3.158,8.278,0,11.437l22.874,22.874c1.58,1.579,3.648,2.368,5.718,2.368c2.07,0,4.139-0.789,5.718-2.368
	l268.757-268.756C422.959,121.823,422.959,116.703,419.801,113.544z"/>
<path style="fill:#8E9AA9;" d="M505.575,27.77L482.702,4.898c-2.681-2.678-6.863-3.14-10.06-1.104l-62.898,40.025
	c-1.237,0.786-2.236,1.894-2.891,3.205l-22.877,45.749c-1.557,3.113-0.947,6.874,1.514,9.335l22.874,22.874
	c1.553,1.553,3.623,2.368,5.72,2.368c1.228,0,2.465-0.279,3.615-0.854l45.746-22.874c1.311-0.655,2.419-1.655,3.205-2.891
	l40.028-62.901C508.713,34.633,508.254,30.45,505.575,27.77z"/>
<path style="fill:#7EC97D;" d="M253.972,347.992L162.48,256.5c-3.159-3.157-8.278-3.157-11.437,0L13.805,393.738
	c-3.158,3.159-3.158,8.278,0,11.437l91.492,91.492c1.58,1.579,3.648,2.368,5.718,2.368s4.139-0.789,5.718-2.368l137.238-137.238
	C257.13,356.27,257.13,351.151,253.972,347.992z"/>
<rect x="111.933" y="270.955" transform="matrix(0.7071 0.7071 -0.7071 0.7071 304.9963 15.8399)" style="fill:#59AD57;" width="42.89" height="210.255"/>
<path style="fill:#4E944D;" d="M253.972,347.992l-31.089-31.089L74.208,465.579l31.089,31.089c1.58,1.579,3.648,2.368,5.718,2.368
	s4.139-0.789,5.718-2.368l137.238-137.238C257.13,356.27,257.13,351.151,253.972,347.992z"/>
<path style="fill:#59AD57;" d="M76.706,510.472c0.856,0,1.718-0.135,2.555-0.414l34.309-11.436L11.851,396.9L0.415,431.21
	c-0.968,2.905-0.212,6.11,1.954,8.276l68.619,68.619C72.528,509.645,74.595,510.472,76.706,510.472z"/>
<path style="fill:#B8E3A8;" d="M231.099,256.5c-1.517-1.516-3.573-2.368-5.718-2.368h-68.619l99.579,99.579v-68.619
	c0-2.145-0.852-4.201-2.368-5.718L231.099,256.5z"/>
<g>
</g>
<g>
</g>
<g>
</g>
<g>
</g>
<g>
</g>
<g>
</g>
<g>
</g>
<g>
</g>
<g>
</g>
<g>
</g>
<g>
</g>
<g>
</g>
<g>
</g>
<g>
</g>
<g>
</g>
</svg>
