<svg viewBox="0 0 512.001 512" xmlns="http://www.w3.org/2000/svg"><path d="m376 135c0 66.300781-53.699219 120-120 120s-120-53.699219-120-120 53.699219-120 120-120 120 53.699219 120 120zm0 0" fill="#25d9f8"/><path d="m376 135c0 66.300781-53.699219 120-120 120v-240c66.300781 0 120 53.699219 120 120zm0 0" fill="#00c0f1"/><path d="m209.699219 340.398438c-.300781 0-.300781-.300782-.300781-.300782-6.710938-6.710937-36.378907-36.449218-57.664063-57.632812-11.722656-11.675782-30.617187-11.582032-42.316406.117187-11.71875 11.71875-11.71875 30.71875 0 42.433594l41.484375 41.484375c5.59375 5.597656 5.574218 15.425781 0 21-5.59375 5.589844-14.863282 6.445312-21.300782 0l-65.101562-65.097656c-2.96875-2.476563-4.5-7.40625-4.5-10.503906v-159.898438c0-16.5-13.5-30-30-30s-30 13.5-30 30v149.398438c0 42.714843 18.6875 84.917968 54.601562 114.300781l35.398438 28.5v52.800781c0 8.285156 6.714844 15 15 15h120c8.285156 0 15-6.714844 15-15v-95.101562c0-28.785157-12.546875-43.746094-30.300781-61.5zm0 0" fill="#ffa78f"/><path d="m482 122c-16.5 0-30 13.5-30 30v159.898438c0 3.097656-1.53125 8.027343-4.5 10.503906l-65.101562 65.097656c-6.4375 6.445312-15.707032 5.589844-21.300782 0-2.699218-2.699219-4.199218-6.597656-4.199218-10.5 0-3.898438 1.5-7.800781 4.199218-10.5l41.484375-41.484375c11.71875-11.714844 11.71875-30.714844.003907-42.433594-11.703126-11.699219-30.59375-11.792969-42.320313-.121093-21.28125 21.1875-50.949219 50.921874-57.664063 57.636718 0 0 0 .300782-.300781.300782-17.753906 17.753906-30.300781 32.714843-30.300781 61.5v95.101562c0 8.285156 6.71875 15 15 15h120c8.285156 0 15-6.714844 15-15v-52.800781l35.402344-28.5c35.859375-29.335938 54.597656-71.523438 54.597656-114.296875v-149.402344c0-16.5-13.5-30-30-30zm0 0" fill="#f89580"/><path d="m381.398438 86.101562c0-.902343-.296876-1.800781-.597657-2.402343-20.402343-49.199219-68.699219-83.699219-124.800781-83.699219s-104.398438 34.5-124.800781 83.699219c-.296875.601562-.597657 1.5-.597657 2.402343-6 15.300782-9.601562 31.5-9.601562 48.898438s3.601562 33.601562 9.601562 48.902344c0 .898437.296876 1.796875.597657 2.398437 20.402343 49.199219 68.699219 83.699219 124.800781 83.699219s104.398438-34.5 124.800781-83.699219c.296875-.601562.597657-1.5.597657-2.398437 6-15.300782 9.601562-31.503906 9.601562-48.902344 0-17.402344-3.601562-33.597656-9.601562-48.898438zm-39.597657-11.101562h-31.800781c-2.699219-12.898438-6-24.902344-10.5-35.398438 17.101562 7.796876 31.800781 20.097657 42.300781 35.398438zm-85.800781-45c5.699219 0 16.5 15.597656 23.402344 45h-46.804688c6.902344-29.402344 17.703125-45 23.402344-45zm-100.199219 135c-2.699219-9.597656-4.800781-19.5-4.800781-30s2.101562-20.398438 4.800781-30h41.699219c-.898438 9.898438-1.5 19.800781-1.5 30s.601562 20.097656 1.5 30zm14.398438 30h31.800781c2.699219 12.902344 6 24.898438 10.5 35.402344-17.101562-7.804688-31.800781-20.101563-42.300781-35.402344zm31.800781-120h-31.800781c10.5-15.300781 25.199219-27.601562 42.300781-35.398438-4.5 10.496094-7.800781 22.5-10.5 35.398438zm54 165c-5.699219 0-16.5-15.601562-23.402344-45h46.804688c-6.902344 29.398438-17.703125 45-23.402344 45zm28.5-75h-57c-.898438-9.300781-1.5-19.199219-1.5-30s.601562-20.699219 1.5-30h57c.898438 9.300781 1.5 19.199219 1.5 30s-.601562 20.699219-1.5 30zm15 65.402344c4.5-10.503906 7.800781-22.5 10.5-35.402344h31.800781c-10.5 15.300781-25.199219 27.597656-42.300781 35.402344zm56.699219-65.402344h-41.699219c.898438-9.902344 1.5-19.800781 1.5-30s-.601562-20.101562-1.5-30h41.699219c2.699219 9.601562 4.800781 19.5 4.800781 30s-2.101562 20.402344-4.800781 30zm0 0" fill="#a8ebfa"/><path d="m381.398438 86.101562c0-.902343-.296876-1.800781-.597657-2.402343-20.402343-49.199219-68.699219-83.699219-124.800781-83.699219v30c5.699219 0 16.5 15.597656 23.402344 45h-23.402344v30h28.5c.898438 9.300781 1.5 19.199219 1.5 30s-.601562 20.699219-1.5 30h-28.5v30h23.402344c-6.902344 29.398438-17.703125 45-23.402344 45v30c56.101562 0 104.398438-34.5 124.800781-83.699219.296875-.601562.597657-1.5.597657-2.398437 6-15.300782 9.601562-31.503906 9.601562-48.902344 0-17.402344-3.601562-33.597656-9.601562-48.898438zm-39.597657-11.101562h-31.800781c-2.699219-12.898438-6-24.902344-10.5-35.398438 17.101562 7.796876 31.800781 20.097657 42.300781 35.398438zm-42.300781 155.402344c4.5-10.503906 7.800781-22.5 10.5-35.402344h31.800781c-10.5 15.300781-25.199219 27.597656-42.300781 35.402344zm56.699219-65.402344h-41.699219c.898438-9.902344 1.5-19.800781 1.5-30s-.601562-20.101562-1.5-30h41.699219c2.699219 9.601562 4.800781 19.5 4.800781 30s-2.101562 20.402344-4.800781 30zm0 0" fill="#76e2f8"/></svg>