<svg viewBox="0 0 512 512" xmlns="http://www.w3.org/2000/svg"><path d="m482 30c0 16.5-13.5 30-30 30s-30-13.5-30-30 13.5-30 30-30 30 13.5 30 30zm0 0" fill="#76e2f8"/><path d="m512 120v65.699219c0 5.101562-4.199219 9.300781-9.300781 9.300781h-20.699219v60c0 16.5-13.5 30-30 30s-30-13.5-30-30v-60h-20.699219c-5.101562 0-9.300781-4.199219-9.300781-9.300781v-65.699219c0-33 27-60 60-60s60 27 60 60zm0 0" fill="#76e2f8"/><path d="m482 30c0 16.5-13.5 30-30 30v-60c16.5 0 30 13.5 30 30zm0 0" fill="#25d9f8"/><path d="m512 120v65.699219c0 5.101562-4.199219 9.300781-9.300781 9.300781h-20.699219v60c0 16.5-13.5 30-30 30v-225c33 0 60 27 60 60zm0 0" fill="#25d9f8"/><path d="m512 315c0 16.5-13.5 30-30 30h-452c-16.5 0-30-13.5-30-30s13.5-30 30-30h452c16.5 0 30 13.5 30 30zm0 0" fill="#f6a96c"/><path d="m512 315c0 16.5-13.5 30-30 30h-226v-60h226c16.5 0 30 13.5 30 30zm0 0" fill="#ea9b58"/><path d="m305.199219 282.597656c-3.597657-24.296875-24.597657-42.597656-49.199219-42.597656s-45.601562 18.300781-49.199219 42.597656l-21.300781 152.300782c-.601562 4.199218.601562 8.699218 3.601562 12 2.699219 3.300781 6.898438 5.101562 11.097657 5.101562h111.601562c4.199219 0 8.398438-1.800781 11.097657-5.101562 3.003906-3.300782 4.203124-7.796876 3.601562-12zm0 0" fill="#fed2a4"/><path d="m326.5 434.898438c.601562 4.203124-.601562 8.699218-3.601562 12-2.699219 3.300781-6.898438 5.101562-11.097657 5.101562h-55.800781v-212c24.601562 0 45.601562 18.300781 49.199219 42.597656zm0 0" fill="#ffbd86"/><path d="m346 422h-180c-41.398438 0-75 33.601562-75 75 0 8.398438 6.597656 15 15 15h300c8.402344 0 15-6.601562 15-15 0-41.398438-33.601562-75-75-75zm0 0" fill="#b35f49"/><path d="m421 497c0 8.398438-6.597656 15-15 15h-150v-90h90c41.398438 0 75 33.601562 75 75zm0 0" fill="#804231"/><path d="m90 30c0 16.5-13.5 30-30 30s-30-13.5-30-30 13.5-30 30-30 30 13.5 30 30zm0 0" fill="#ff5b5b"/><path d="m120 120v65.699219c0 5.101562-4.199219 9.300781-9.300781 9.300781h-20.699219v60c0 16.5-13.5 30-30 30s-30-13.5-30-30v-60h-20.699219c-5.101562 0-9.300781-4.199219-9.300781-9.300781v-65.699219c0-33 27-60 60-60s60 27 60 60zm0 0" fill="#ff5b5b"/><g fill="#ff001e"><path d="m90 30c0 16.5-13.5 30-30 30v-60c16.5 0 30 13.5 30 30zm0 0"/><path d="m120 120v65.699219c0 5.101562-4.199219 9.300781-9.300781 9.300781h-20.699219v60c0 16.5-13.5 30-30 30v-225c33 0 60 27 60 60zm0 0"/></g></svg>