<svg height="512.00016pt" viewBox="0 0 512.00016 512.00016" width="512.00016pt" xmlns="http://www.w3.org/2000/svg"><path d="m180.882812 424.886719-27.390624-66.378907-66.378907-27.390624s-112.613281 22.207031-81.761719 163.953124c1.257813 5.785157 5.792969 10.320313 11.578126 11.578126 141.746093 30.851562 163.953124-81.761719 163.953124-81.761719zm0 0" fill="#f9da60"/><path d="m180.882812 424.886719-27.390624-66.378907-15.46875-6.382812 21.007812 50.910156s-21.3125 108.035156-155.394531 83.472656c.515625 2.804688 1.082031 5.65625 1.714843 8.5625 1.257813 5.785157 5.792969 10.320313 11.578126 11.578126 141.746093 30.851562 163.953124-81.761719 163.953124-81.761719zm0 0" fill="#ffb258"/><path d="m119.644531 350.722656.011719.011719c.222656-.054687.355469-.085937.371094-.089844-.25.054688-.382813.078125-.382813.078125zm41.636719 41.636719-41.625-41.625c-3.085938.796875-25.128906 7.109375-37.757812 27.652344-7.898438 12.847656-11.152344 29.3125-9.738282 49.160156.46875 6.578125 5.734375 11.832031 12.308594 12.296875 20.171875 1.433594 36.84375-1.949219 49.78125-10.132812 21.503906-13.609376 26.984375-37.121094 27.03125-37.351563zm0 0" fill="#ff6881"/><path d="m220.691406 70.195312c-57.050781-29.671874-124.363281-.539062-155.128906 16.351563-8.746094 4.796875-10.429688 16.640625-3.375 23.691406l63.8125 63.8125zm0 0" fill="#4d9ae8"/><path d="m441.808594 291.308594c29.667968 57.050781.535156 124.363281-16.355469 155.128906-4.796875 8.746094-16.640625 10.429688-23.691406 3.375l-63.8125-63.808594zm0 0" fill="#4d9ae8"/><path d="m489.917969 196.140625-64.207031-109.851563-109.851563-64.207031c-46.691406 15.65625-95.488281 41.785157-138.414063 84.714844-43.492187 43.492187-70.886718 97.683594-88.140624 148.539063l64.1875 103.171874 103.171874 64.1875c50.859376-17.253906 105.050782-44.648437 148.542969-88.136718 42.925781-42.929688 69.054688-91.726563 84.710938-138.417969zm0 0" fill="#ececee"/><path d="m489.917969 196.140625-64.207031-109.851563-13.789063-8.0625 56.144531 96.0625c-15.65625 46.6875-41.789062 95.488282-84.714844 138.414063-43.492187 43.492187-97.683593 70.882813-148.539062 88.136719l-89.703125-55.804688 8.382813 13.472656 103.171874 64.1875c50.859376-17.253906 105.050782-44.648437 148.542969-88.140624 42.925781-42.925782 69.054688-91.722657 84.710938-138.414063zm0 0" fill="#dadadc"/><path d="m89.304688 255.335938c-4.699219 13.847656-8.644532 27.453124-11.957032 40.53125-3.203125 12.640624.542969 26.03125 9.765625 35.25l93.769531 93.769531c9.222657 9.222656 22.609376 12.96875 35.25 9.765625 13.078126-3.3125 26.683594-7.257813 40.53125-11.957032zm0 0" fill="#4d9ae8"/><path d="m234.8125 400.839844c-13.847656 4.703125-27.457031 8.648437-40.53125 11.960937-12.640625 3.203125-26.03125-.546875-35.25-9.765625l21.851562 21.851563c9.222657 9.222656 22.609376 12.96875 35.25 9.765625 13.078126-3.3125 26.683594-7.257813 40.53125-11.957032zm0 0" fill="#217edb"/><path d="m489.917969 196.140625-174.058594-174.058594c67.039063-22.484375 129.742187-23.363281 164.476563-21.390625 16.6875.949219 30.023437 14.285156 30.972656 30.972656 1.972656 34.734376 1.09375 97.4375-21.390625 164.476563zm0 0" fill="#ff6881"/><path d="m511.308594 31.664062c-.796875-14.007812-10.324219-25.652343-23.234375-29.589843.753906 2.464843 1.226562 5.058593 1.378906 7.738281 1.972656 34.734375 1.09375 97.4375-21.390625 164.476562l21.855469 21.851563c22.484375-67.039063 23.363281-129.742187 21.390625-164.476563zm0 0" fill="#de4b64"/><path d="m402.175781 222.398438c0 62.171874-50.402343 112.574218-112.574219 112.574218-62.171874 0-112.574218-50.402344-112.574218-112.574218 0-62.171876 50.402344-112.574219 112.574218-112.574219 62.171876 0 112.574219 50.402343 112.574219 112.574219zm0 0" fill="#bebebf"/><path d="m367.113281 222.398438c0 42.808593-34.703125 77.511718-77.511719 77.511718-42.808593 0-77.507812-34.703125-77.507812-77.511718 0-42.808594 34.699219-77.507813 77.507812-77.507813 42.808594 0 77.511719 34.699219 77.511719 77.507813zm0 0" fill="#6dd1e0"/><g fill="#3a3c4c"><path d="m255.027344 195.695312c-1.976563 0-3.957032-.753906-5.464844-2.261718-3.015625-3.019532-3.015625-7.910156 0-10.929688l6.246094-6.242187c3.015625-3.019531 7.910156-3.019531 10.925781 0 3.019531 3.015625 3.019531 7.910156 0 10.925781l-6.246094 6.246094c-1.507812 1.507812-3.484375 2.261718-5.460937 2.261718zm0 0"/><path d="m324.03125 264.699219c-1.976562 0-3.953125-.753907-5.464844-2.261719-3.015625-3.015625-3.015625-7.910156 0-10.925781l6.246094-6.246094c3.019531-3.015625 7.910156-3.015625 10.925781 0 3.019531 3.019531 3.019531 7.910156 0 10.925781l-6.242187 6.246094c-1.511719 1.507812-3.488282 2.261719-5.464844 2.261719zm0 0"/><path d="m297.472656 238.3125c-6.1875 0-12.214844-2.519531-16.738281-7.042969-4.898437-4.898437-7.445313-11.554687-6.996094-18.265625.285157-4.257812 4.003907-7.480468 8.226563-7.191406 4.257812.285156 7.476562 3.96875 7.191406 8.226562-.152344 2.261719.757812 4.558594 2.503906 6.304688 1.742188 1.738281 4.039063 2.648438 6.300782 2.5 4.234374-.285156 7.941406 2.933594 8.226562 7.191406.285156 4.257813-2.933594 7.941406-7.191406 8.226563-.507813.035156-1.015625.050781-1.523438.050781zm0 0"/></g></svg>