<svg height="472pt" viewBox="-4 0 472 472.00002" width="472pt" xmlns="http://www.w3.org/2000/svg"><path d="m464 176v64c-.027344 8.824219-7.175781 15.972656-16 16h-49.359375c-4.265625 0-8.351563 1.699219-11.359375 4.71875l-27.28125 27.28125v-32h-40c-8.824219-.027344-15.972656-7.175781-16-16v-64c.027344-8.824219 7.175781-15.972656 16-16h128c8.824219.027344 15.972656 7.175781 16 16zm0 0" fill="#00ccb3"/><path d="m408 16v64c-.027344 8.824219-7.175781 15.972656-16 16h-49.359375c-4.265625 0-8.351563 1.699219-11.359375 4.71875l-27.28125 27.28125v-32h-40c-8.824219-.027344-15.972656-7.175781-16-16v-64c.027344-8.824219 7.175781-15.9726562 16-16h128c8.824219.0273438 15.972656 7.175781 16 16zm0 0" fill="#ffd422"/><path d="m307.921875 333.199219c.9375 2.449219.609375 5.203125-.878906 7.359375-1.484375 2.160156-3.941407 3.445312-6.5625 3.441406h-28.480469l-8-16h8v-48h4.878906c6.6875.011719 12.671875 4.148438 15.042969 10.398438zm0 0" fill="#1e81ce"/><path d="m272 225.441406v102.558594h-80v-102.558594c-.039062-6.398437 1.886719-12.65625 5.519531-17.921875 8-11.679687 23.199219-31.519531 34.480469-31.519531s26.480469 19.839844 34.480469 31.519531c3.632812 5.265625 5.558593 11.523438 5.519531 17.921875zm0 0" fill="#3d9ae2"/><path d="m256 328-8 24h-32l-8-24zm0 0" fill="#1e81ce"/><path d="m232 352c13.253906 0 24 10.746094 24 24 0 13.28125-10.71875 40-24 40s-24-26.71875-24-40c0-13.253906 10.746094-24 24-24zm0 0" fill="#ff5023"/><path d="m248 224c0 8.835938-7.164062 16-16 16s-16-7.164062-16-16 7.164062-16 16-16 16 7.164062 16 16zm0 0" fill="#ff9811"/><path d="m200 24v64c-.027344 8.824219-7.175781 15.972656-16 16h-40v32l-27.28125-27.28125c-3.007812-3.019531-7.09375-4.71875-11.359375-4.71875h-49.359375c-8.824219-.027344-15.972656-7.175781-16-16v-64c.027344-8.824219 7.175781-15.972656 16-16h128c8.824219.027344 15.972656 7.175781 16 16zm0 0" fill="#ffd422"/><path d="m200 328-8 16h-28.480469c-2.621093.003906-5.078125-1.28125-6.5625-3.441406-1.488281-2.15625-1.816406-4.910156-.878906-7.359375l16-42.800781c2.371094-6.25 8.355469-10.386719 15.042969-10.398438h4.878906v48zm0 0" fill="#1e81ce"/><path d="m160 184v64c-.027344 8.824219-7.175781 15.972656-16 16h-40v32l-27.28125-27.28125c-3.007812-3.019531-7.09375-4.71875-11.359375-4.71875h-49.359375c-8.824219-.027344-15.9726562-7.175781-16-16v-64c.0273438-8.824219 7.175781-15.972656 16-16h128c8.824219.027344 15.972656 7.175781 16 16zm0 0" fill="#00ccb3"/><path d="m320 432c-2.910156.011719-5.757812.824219-8.238281 2.34375.140625-.773438.21875-1.558594.238281-2.34375 0-8.835938-7.164062-16-16-16s-16 7.164062-16 16c-3.195312-.007812-6.316406.949219-8.960938 2.742188-2.199218-6.429688-8.242187-10.75-15.039062-10.75s-12.839844 4.320312-15.039062 10.75c-5.414063-3.65625-12.507813-3.65625-17.921876 0-2.199218-6.429688-8.242187-10.75-15.039062-10.75s-12.839844 4.320312-15.039062 10.75c-2.644532-1.792969-5.765626-2.75-8.960938-2.742188 0-8.835938-7.164062-16-16-16s-16 7.164062-16 16c.019531.785156.097656 1.570312.238281 2.34375-7.25-4.421875-16.691406-2.410156-21.507812 4.582031-4.816407 6.996094-3.332031 16.535157 3.386719 21.730469 6.714843 5.199219 16.320312 4.242188 21.882812-2.175781 4.96875 5.832031 13.421875 7.226562 20 3.304687 2.421875 1.433594 5.183594 2.199219 8 2.214844h96c2.816406-.015625 5.578125-.78125 8-2.214844 6.578125 3.921875 15.03125 2.527344 20-3.304687 4.84375 5.585937 12.882812 7.128906 19.449219 3.726562 6.566406-3.402343 9.945312-10.859375 8.175781-18.039062-1.769531-7.179688-8.230469-12.210938-15.625-12.167969zm0 0" fill="#96c8ef"/><g fill="#ddb200"><path d="m112 48h16v16h-16zm0 0"/><path d="m144 48h16v16h-16zm0 0"/><path d="m80 48h16v16h-16zm0 0"/></g><path d="m72 208h16v16h-16zm0 0" fill="#00b39d"/><path d="m104 208h16v16h-16zm0 0" fill="#00b39d"/><path d="m40 208h16v16h-16zm0 0" fill="#00b39d"/><path d="m320 40h16v16h-16zm0 0" fill="#ddb200"/><path d="m352 40h16v16h-16zm0 0" fill="#ddb200"/><path d="m288 40h16v16h-16zm0 0" fill="#ddb200"/><path d="m376 200h16v16h-16zm0 0" fill="#00b39d"/><path d="m408 200h16v16h-16zm0 0" fill="#00b39d"/><path d="m344 200h16v16h-16zm0 0" fill="#00b39d"/><path d="m224 272h16v56h-16zm0 0" fill="#1e81ce"/><path d="m144 472c-8.742188.011719-16.800781-4.730469-21.035156-12.382812-4.230469-7.652344-3.96875-17 .6875-24.398438 4.65625-7.402344 12.972656-11.683594 21.699218-11.179688 3.875-11.042968 15.148438-17.683593 26.683594-15.714843 11.539063 1.96875 19.972656 11.972656 19.964844 23.675781h-16c0-4.417969-3.582031-8-8-8s-8 3.582031-8 8c.007812.449219.042969.894531.113281 1.335938.34375 3.027343-1.058593 5.984374-3.617187 7.632812-2.5625 1.648438-5.835938 1.703125-8.449219.136719-1.222656-.734375-2.621094-1.113281-4.046875-1.105469-4.417969 0-8 3.582031-8 8s3.582031 8 8 8zm0 0" fill="#78b9eb"/><path d="m320 472v-16c4.417969 0 8-3.582031 8-8s-3.582031-8-8-8c-1.425781-.007812-2.824219.375-4.046875 1.105469-2.605469 1.558593-5.871094 1.511719-8.425781-.128907-2.558594-1.636718-3.96875-4.582031-3.640625-7.601562.066406-.457031.101562-.914062.113281-1.375 0-4.417969-3.582031-8-8-8s-8 3.582031-8 8h-16c.003906-11.695312 8.433594-21.6875 19.960938-23.652344 11.53125-1.96875 22.796874 4.660156 26.679687 15.691406 8.726563-.503906 17.039063 3.777344 21.695313 11.175782 4.65625 7.398437 4.921874 16.746094.691406 24.398437-4.230469 7.648438-12.285156 12.394531-21.027344 12.386719zm0 0" fill="#78b9eb"/><path d="m96 456h272v16h-272zm0 0" fill="#78b9eb"/></svg>