<?xml version="1.0" encoding="iso-8859-1"?>
<!-- Generator: Adobe Illustrator 19.0.0, SVG Export Plug-In . SVG Version: 6.00 Build 0)  -->
<svg version="1.1" id="Capa_1" xmlns="http://www.w3.org/2000/svg" xmlns:xlink="http://www.w3.org/1999/xlink" x="0px" y="0px"
	 viewBox="0 0 512 512" style="enable-background:new 0 0 512 512;" xml:space="preserve">
<path style="fill:#6B5B4B;" d="M273.655,80.137V61.793h26.483v-35.31h-26.483V0h-35.31v26.483h-26.483v35.31h26.483v18.344
	c-26.2,1.969-48.675,17.081-62.985,25.794l1.192,17.655l8.828,26.483h44.138h52.966h44.138l8.828-26.483l1.192-17.655
	C322.33,97.218,299.855,82.105,273.655,80.137z"/>
<g>
	<rect x="203.034" y="211.862" style="fill:#BFA380;" width="105.931" height="52.966"/>
	<path style="fill:#BFA380;" d="M308.966,298.708v-16.225H203.034v16.225c0,18.485-2.984,36.855-8.828,54.396
		s-8.828,27.083-8.828,45.568v42.708h141.241v-42.708c0-18.485-2.984-28.028-8.828-45.568
		C311.949,335.563,308.966,317.193,308.966,298.708z"/>
	<path style="fill:#BFA380;" d="M388.414,512H123.586c-9.754,0-17.655-7.901-17.655-17.655v-8.828
		c0-9.754,7.901-17.655,17.655-17.655h264.828c9.754,0,17.655,7.901,17.655,17.655v8.828C406.069,504.099,398.168,512,388.414,512z"
		/>
</g>
<g>
	<path style="fill:#6B5B4B;" d="M344.276,467.862H167.724c-9.754,0-17.655-7.901-17.655-17.655l0,0
		c0-9.754,7.901-17.655,17.655-17.655h176.552c9.754,0,17.655,7.901,17.655,17.655l0,0
		C361.931,459.961,354.03,467.862,344.276,467.862z"/>
	<rect x="176.552" y="256" style="fill:#6B5B4B;" width="158.897" height="35.31"/>
	<rect x="176.552" y="185.379" style="fill:#6B5B4B;" width="158.897" height="35.31"/>
</g>
<polygon style="fill:#BFA380;" points="326.621,105.931 326.621,141.241 282.483,141.241 282.483,114.759 229.517,114.759 
	229.517,141.241 185.379,141.241 185.379,105.931 150.069,105.931 150.069,150.069 176.552,185.379 335.448,185.379 
	361.931,150.069 361.931,105.931 "/>
<g>
</g>
<g>
</g>
<g>
</g>
<g>
</g>
<g>
</g>
<g>
</g>
<g>
</g>
<g>
</g>
<g>
</g>
<g>
</g>
<g>
</g>
<g>
</g>
<g>
</g>
<g>
</g>
<g>
</g>
</svg>
