<svg id="Capa_1" enable-background="new 0 0 512 512" height="512" viewBox="0 0 512 512" width="512" xmlns="http://www.w3.org/2000/svg"><g><g><g><path d="m109.257 112.294c-5.141.105-9.337-4.09-9.232-9.232.05-2.463-.906-4.841-2.648-6.583l-54.005-54.005c-3.89-3.89-10.198-3.89-14.088 0l-26.366 26.367c-3.89 3.89-3.89 10.198 0 14.088l54.005 54.005c1.742 1.742 4.12 2.699 6.583 2.648 5.141-.105 9.337 4.09 9.232 9.232-.05 2.463.906 4.841 2.648 6.583l219.213 219.213 40.454-40.454-219.213-219.213c-1.742-1.743-4.12-2.699-6.583-2.649z" fill="#ddeafb"/></g><g><path d="m115.84 114.943c-1.742-1.742-4.12-2.699-6.583-2.648-5.142.105-9.337-4.09-9.232-9.232.05-2.463-.906-4.841-2.648-6.583l-54.005-54.006c-3.89-3.89-10.198-3.89-14.088 0l-15.129 15.13c3.89-3.89 10.198-3.89 14.088 0l54.005 54.005c1.742 1.742 2.699 4.12 2.648 6.583-.105 5.141 4.09 9.337 9.232 9.232 2.463-.05 4.841.906 6.583 2.648l219.213 219.213 15.129-15.129z" fill="#cbe2ff"/></g><g><path d="m278.302 385.175 68.902 68.902c17.375 17.375 39.154 29.69 62.999 35.624l7.966 1.982c4.927 1.226 10.136-.22 13.726-3.81l16.421-16.421c3.59-3.59 5.036-8.799 3.81-13.726l-1.982-7.966c-5.933-23.845-18.249-45.624-35.624-62.999l-68.902-68.902c-5.835-5.835-15.296-5.835-21.132 0l-46.185 46.185c-5.834 5.835-5.834 15.296.001 21.131z" fill="#524798"/></g><g><path d="m452.126 457.725-1.982-7.966c-5.933-23.845-18.249-45.624-35.624-62.999l-68.901-68.902c-5.835-5.835-15.297-5.835-21.132 0l-24.259 24.259c5.835-5.835 15.297-5.835 21.132 0l68.901 68.901c17.375 17.375 29.69 39.154 35.624 62.999l1.982 7.966c.759 3.051.491 6.21-.673 9.026 1.731-.716 3.334-1.77 4.701-3.137l16.421-16.421c3.59-3.59 5.036-8.799 3.81-13.726z" fill="#453d81"/></g></g><g><g><path d="m508.024 99.861c-.969-3.53-5.36-4.729-7.948-2.141l-60.667 60.667c-5.561 5.561-14.578 5.561-20.139 0l-47.43-47.43c-5.561-5.561-5.561-14.578 0-20.139l60.667-60.667c2.588-2.588 1.389-6.979-2.141-7.948-37.282-10.236-78.853-.711-108.146 28.582-30.604 30.604-39.631 74.611-27.088 113.126.548 1.683.084 3.532-1.168 4.784l-172.381 172.378c-1.913 1.913-3.554 4.082-4.874 6.444l-12.88 23.037c-4.1 7.334-11.142 12.564-19.348 14.37l-.257.057c-5.482 1.206-10.505 3.957-14.474 7.926l-30.517 30.517c-3.708 3.708-3.708 9.719 0 13.426l54.143 54.143c3.708 3.708 9.719 3.708 13.426 0l30.674-30.674c3.969-3.969 6.72-8.992 7.926-14.474 1.806-8.206 7.036-15.248 14.37-19.348l22.582-12.625c2.362-1.32 4.53-2.961 6.444-4.874l172.734-172.734c1.252-1.252 3.1-1.716 4.783-1.168 38.515 12.543 82.522 3.516 113.126-27.089 29.294-29.293 38.818-70.864 28.583-108.146z" fill="#ecf4ff"/></g><g><g><path d="m508.024 99.861c-.969-3.53-5.36-4.729-7.948-2.141l-.43.43c-.354 27.976-11.19 55.843-32.537 77.189-30.604 30.604-74.611 39.631-113.126 27.089-1.683-.548-3.532-.084-4.783 1.168l-172.735 172.733c-1.913 1.913-4.082 3.554-6.444 4.874l-22.582 12.625c-7.334 4.1-12.564 11.142-14.37 19.348-1.206 5.482-3.957 10.505-7.926 14.474l-47.555 47.555 15.787 15.787c3.708 3.708 9.719 3.707 13.426 0l30.674-30.674c3.969-3.969 6.72-8.992 7.926-14.474 1.806-8.206 7.036-15.248 14.37-19.348l22.582-12.625c2.362-1.32 4.53-2.961 6.444-4.874l172.734-172.734c1.252-1.252 3.1-1.716 4.783-1.168 38.515 12.543 82.522 3.516 113.126-27.089 29.295-29.292 38.819-70.863 28.584-108.145z" fill="#ddeafb"/></g></g></g></g></svg>