<!DOCTYPE svg PUBLIC "-//W3C//DTD SVG 20010904//EN" "http://www.w3.org/TR/2001/REC-SVG-20010904/DTD/svg10.dtd">
<svg version="1.0" xmlns="http://www.w3.org/2000/svg" width="231px" height="225px" viewBox="0 0 2310 2250" preserveAspectRatio="xMidYMid meet">
<g id="layer101" fill="#222fcc" stroke="none">
 <path d="M915 1865 c-490 -211 -896 -388 -904 -392 -12 -8 15 -95 148 -485 l163 -476 62 -16 c33 -8 479 -123 990 -255 511 -133 931 -239 934 -237 4 5 -480 2173 -496 2223 -7 21 -44 6 -897 -362z"/>
 </g>
<g id="layer102" fill="#1a4bcc" stroke="none">
 <path d="M1078 1936 c-399 -173 -751 -326 -782 -340 -30 -14 -60 -26 -65 -26 -7 0 -11 -41 -11 -116 0 -64 -4 -114 -8 -112 -41 17 -199 125 -195 133 3 5 0 5 -7 -2 -10 -10 13 -87 120 -400 73 -213 137 -389 141 -391 4 -2 5 -10 2 -18 -3 -8 0 -14 7 -14 13 0 360 -198 375 -214 6 -6 17 -13 25 -14 8 -2 24 -6 35 -9 11 -2 29 -6 40 -7 11 -2 22 -5 25 -6 3 -2 10 -4 15 -5 6 -1 17 -4 25 -7 28 -10 125 -37 150 -42 14 -3 34 -7 45 -10 275 -75 1290 -335 1293 -332 4 5 -480 2174 -496 2223 -7 21 -37 9 -734 -291z"/>
 </g>
<g id="layer103" fill="#1072ce" stroke="none">
 <path d="M1270 2018 c-294 -126 -537 -234 -538 -239 -2 -5 -8 -7 -13 -3 -5 3 -9 0 -9 -6 0 -6 -3 -9 -7 -7 -5 3 -7 -161 -5 -364 l2 -370 -62 40 c-35 21 -192 120 -351 220 -158 99 -287 177 -287 173 -1 -17 174 -512 181 -512 7 0 1142 -651 1209 -694 19 -12 67 -32 105 -44 116 -35 808 -212 813 -208 4 5 -480 2173 -496 2223 -7 21 -28 13 -542 -209z"/>
 </g>
<g id="layer104" fill="#1299d2" stroke="none">
 <path d="M1773 2235 c-18 -8 -47 -20 -65 -29 -18 -8 -112 -48 -209 -89 -96 -42 -207 -90 -245 -107 -38 -18 -97 -43 -131 -57 -35 -14 -63 -29 -63 -35 0 -5 -4 -6 -10 -3 -5 3 -18 1 -27 -4 -10 -6 -12 -11 -5 -11 9 0 12 -114 12 -536 0 -506 -1 -536 -17 -529 -20 7 -206 123 -681 423 -178 112 -325 202 -327 200 -6 -6 86 -272 96 -276 4 -2 6 -9 3 -16 -3 -7 1 -13 8 -13 13 0 1801 -1026 1828 -1049 8 -7 29 -16 45 -19 34 -7 44 -10 65 -18 8 -3 60 -17 115 -31 55 -14 110 -28 123 -32 13 -4 22 -2 22 4 0 13 -499 2234 -503 2238 -1 1 -17 -4 -34 -11z"/>
 </g>
<g id="layer105" fill="#757ee5" stroke="none">
 <path d="M1795 2241 c-3 -6 -11 -9 -16 -6 -5 4 -9 -358 -9 -938 l0 -945 168 -109 c251 -165 363 -235 368 -230 5 4 -493 2227 -500 2234 -2 3 -7 -1 -11 -6z"/>
 </g>
<g id="layer106" fill="#c05ff3" stroke="none">
 <path d="M2011 754 l-1 -552 147 -96 c80 -53 148 -94 150 -92 4 3 -178 822 -223 1001 -13 55 -26 109 -28 120 -7 34 -28 119 -37 145 -4 14 -8 -223 -8 -526z"/>
 </g>

</svg>