<?xml version="1.0" standalone="no"?>
<!DOCTYPE svg PUBLIC "-//W3C//DTD SVG 20010904//EN"
 "http://www.w3.org/TR/2001/REC-SVG-20010904/DTD/svg10.dtd">
<svg version="1.0" xmlns="http://www.w3.org/2000/svg"
 width="1642.000000pt" height="1295.000000pt" viewBox="0 0 1642.000000 1295.000000"
 preserveAspectRatio="xMidYMid meet">
<metadata>
Created by potrace 1.16, written by Peter Selinger 2001-2019
</metadata>
<g transform="translate(0.000000,1295.000000) scale(0.100000,-0.100000)"
fill="#000000" stroke="none">
<path d="M8385 12231 c-105 -59 -230 -132 -280 -160 -49 -29 -157 -91 -238
-138 -82 -47 -151 -91 -153 -98 -3 -7 -4 -29 -2 -49 l3 -37 140 82 c77 44 196
114 265 153 69 40 212 124 319 186 107 62 206 116 220 120 25 7 25 7 -16 28
-23 12 -48 22 -55 22 -7 0 -99 -49 -203 -109z"/>
<path d="M8110 11702 l-395 -227 -5 -956 c-4 -858 -7 -957 -21 -979 -22 -33
-2131 -1253 -2175 -1258 -34 -4 -82 16 -105 44 -12 14 -15 157 -19 910 l-5
893 -510 -294 c-557 -321 -580 -338 -610 -438 -14 -47 -21 -187 -10 -187 3 0
150 84 328 187 177 102 336 191 352 196 42 13 99 -12 125 -55 19 -32 20 -49
20 -728 0 -658 -1 -697 -19 -725 -12 -19 -60 -54 -137 -99 -65 -38 -236 -136
-379 -219 -143 -82 -266 -155 -273 -161 -9 -9 -12 -54 -10 -179 l3 -166 120
69 c66 38 127 70 136 70 37 0 39 -15 39 -351 l0 -327 -146 -83 -145 -84 23
-18 c15 -13 31 -17 52 -13 17 4 386 212 820 463 1272 735 1683 972 2545 1469
791 456 814 470 852 522 38 54 64 136 58 179 -4 22 -9 20 -107 -38 -57 -33
-111 -59 -120 -57 -15 3 -17 25 -17 232 l0 228 123 71 122 72 0 80 c0 44 -3
104 -6 132 l-7 53 -31 -19 c-17 -11 -98 -58 -181 -106 -140 -80 -153 -86 -195
-82 -34 4 -51 13 -72 36 l-28 31 0 715 0 714 23 25 c12 14 94 66 182 117 88
51 192 111 230 134 l70 41 3 160 c3 171 0 194 -24 218 -36 37 -67 23 -474
-212z"/>
<path d="M9810 11364 c-17 -20 -37 -48 -43 -63 -6 -14 -14 -28 -17 -31 -15
-14 -41 -90 -35 -101 5 -7 4 -10 -2 -6 -15 9 -43 -131 -43 -213 l0 -70 69 -73
c79 -84 123 -134 171 -197 19 -25 38 -46 42 -48 5 -2 8 -9 8 -15 0 -7 8 -22
18 -35 18 -23 18 -23 31 52 7 42 32 137 56 213 25 76 45 143 45 150 0 6 -26
67 -58 135 -32 68 -67 142 -77 166 -10 23 -21 42 -25 42 -4 0 -7 6 -7 13 0 25
-65 117 -83 117 -10 0 -32 -16 -50 -36z"/>
<path d="M11160 11129 c-30 -16 -57 -33 -60 -38 -3 -4 -10 -10 -16 -12 -6 -2
-24 -14 -40 -26 -16 -13 -56 -43 -89 -69 -33 -25 -59 -51 -57 -57 2 -7 0 -9
-4 -5 -4 4 -24 -6 -45 -23 l-39 -31 0 -76 c0 -43 -7 -122 -15 -177 -8 -55 -15
-103 -15 -107 0 -4 12 -3 28 3 36 14 187 39 238 39 l41 0 31 78 c47 119 86
285 96 413 3 31 8 68 11 82 10 37 -5 39 -65 6z"/>
<path d="M4735 10126 c-585 -338 -632 -367 -662 -411 -18 -25 -37 -63 -43 -83
-10 -38 -15 -552 -4 -552 3 0 23 10 44 23 l40 22 0 230 c0 260 5 279 76 346
22 20 149 99 284 177 135 77 328 188 430 247 102 59 251 145 333 192 l147 85
0 44 c0 24 -3 44 -7 44 -5 -1 -291 -164 -638 -364z"/>
<path d="M9600 10163 c-63 -47 -120 -107 -120 -124 0 -57 256 -214 420 -258
245 -67 545 -67 790 0 166 45 420 201 420 259 0 10 -28 44 -62 75 l-63 57 -25
-34 c-48 -64 -144 -158 -192 -189 -115 -74 -298 -105 -370 -62 -37 21 -37 21
-74 2 -49 -25 -61 -24 -118 6 l-48 25 -18 -22 c-13 -17 -28 -22 -57 -22 -46 2
-169 44 -228 78 -50 30 -144 129 -181 191 -14 25 -29 45 -32 45 -4 0 -23 -12
-42 -27z"/>
<path d="M8693 8257 c-57 -34 -103 -64 -103 -67 0 -12 167 -100 189 -100 25 0
220 110 221 125 0 15 -159 105 -184 104 -11 0 -67 -28 -123 -62z"/>
<path d="M8700 7999 c-179 -104 -326 -195 -328 -202 -2 -12 154 -107 177 -107
22 0 676 383 675 396 -2 14 -156 104 -179 103 -11 0 -166 -85 -345 -190z"/>
<path d="M8440 8109 c-58 -33 -109 -64 -113 -68 -10 -10 156 -111 181 -111 27
0 224 120 219 133 -3 10 -163 107 -177 107 -3 0 -52 -27 -110 -61z"/>
<path d="M9145 7994 c-60 -35 -111 -68 -113 -73 -4 -11 158 -104 182 -103 20
0 205 101 235 128 11 10 -2 21 -73 63 -48 28 -94 51 -104 50 -9 0 -66 -29
-127 -65z"/>
<path d="M8161 7947 c-57 -34 -105 -66 -105 -71 -1 -12 159 -106 179 -106 21
0 220 119 220 131 0 12 -162 109 -180 108 -5 0 -57 -28 -114 -62z"/>
<path d="M9406 7882 c-44 -26 -81 -52 -82 -57 -4 -11 371 -229 401 -233 21 -3
177 86 179 102 1 11 -383 235 -404 236 -8 0 -51 -21 -94 -48z"/>
<path d="M8858 7827 c-59 -34 -108 -67 -108 -72 0 -13 157 -105 179 -105 20 0
234 123 239 138 4 13 -151 102 -180 102 -13 0 -71 -29 -130 -63z"/>
<path d="M7885 7786 c-61 -35 -109 -67 -109 -72 2 -11 166 -104 184 -104 25 0
222 120 217 133 -4 12 -132 91 -164 101 -12 4 -57 -17 -128 -58z"/>
<path d="M9148 7732 c-65 -37 -118 -71 -118 -77 0 -9 149 -96 178 -103 13 -4
195 96 234 128 20 16 18 18 -71 68 -50 29 -94 52 -98 52 -5 0 -61 -30 -125
-68z"/>
<path d="M8198 7707 c-59 -34 -106 -66 -104 -72 3 -12 163 -105 179 -105 20 0
227 124 224 134 -4 11 -166 106 -182 106 -5 0 -58 -29 -117 -63z"/>
<path d="M11075 7731 c-47 -12 -95 -40 -159 -93 -33 -27 -77 -59 -98 -71 -21
-12 -38 -25 -38 -28 0 -4 20 -25 44 -47 73 -67 189 -89 318 -58 l56 13 17 -41
17 -41 10 28 c5 15 14 27 19 27 16 0 22 -53 11 -94 l-10 -41 34 39 c40 46 74
130 81 203 5 46 3 54 -21 77 -14 15 -29 38 -32 52 -16 62 -143 100 -249 75z"/>
<path d="M8565 7659 c-55 -32 -101 -63 -103 -68 -2 -5 34 -30 80 -56 148 -85
143 -69 44 -127 -47 -27 -86 -53 -86 -57 0 -14 158 -101 183 -101 25 0 409
220 411 235 2 14 -385 235 -409 234 -11 0 -65 -27 -120 -60z"/>
<path d="M7611 7627 c-57 -34 -105 -66 -105 -71 -1 -11 159 -106 179 -106 21
0 220 119 220 132 0 11 -161 108 -180 108 -5 0 -57 -29 -114 -63z"/>
<path d="M9377 7606 c-59 -34 -112 -67 -118 -73 -7 -7 16 -26 79 -62 49 -28
95 -51 101 -51 20 0 241 134 238 144 -4 11 -168 106 -182 105 -5 0 -58 -28
-118 -63z"/>
<path d="M9855 7621 c-44 -26 -80 -52 -80 -57 1 -13 384 -234 406 -234 25 0
180 92 176 105 -5 14 -388 235 -407 234 -8 0 -51 -21 -95 -48z"/>
<path d="M7925 7549 c-55 -32 -101 -64 -102 -71 -3 -13 157 -108 179 -108 18
1 221 123 222 134 1 11 -165 106 -184 105 -8 0 -60 -27 -115 -60z"/>
<path d="M8293 7500 c-56 -33 -104 -63 -107 -68 -5 -8 133 -94 170 -106 13 -4
56 15 129 58 61 35 110 67 110 71 0 11 -167 105 -185 105 -8 0 -61 -27 -117
-60z"/>
<path d="M9598 7472 c-65 -37 -118 -72 -118 -78 0 -15 154 -104 179 -104 24 0
251 131 251 145 0 12 -161 105 -181 105 -8 0 -67 -31 -131 -68z"/>
<path d="M7338 7468 c-60 -34 -108 -66 -108 -72 1 -12 163 -106 182 -106 18 0
223 123 223 134 0 9 -164 106 -180 106 -5 0 -58 -28 -117 -62z"/>
<path d="M4068 7489 l-38 -19 0 -170 c0 -94 2 -170 4 -170 3 0 21 9 40 21 l36
21 0 169 c0 93 -1 169 -2 169 -2 -1 -20 -10 -40 -21z"/>
<path d="M9120 7457 c-144 -81 -210 -121 -210 -128 0 -8 174 -109 186 -109 20
1 279 159 279 171 0 10 -159 110 -175 109 -3 0 -39 -20 -80 -43z"/>
<path d="M7653 7390 c-56 -33 -104 -64 -107 -69 -6 -9 160 -111 180 -111 17 0
224 124 224 135 0 12 -161 105 -181 105 -8 0 -60 -27 -116 -60z"/>
<path d="M8015 7340 c-55 -32 -101 -63 -103 -68 -4 -12 157 -105 182 -104 12
0 62 23 111 52 89 51 123 76 114 83 -22 20 -170 97 -185 96 -10 0 -64 -27
-119 -59z"/>
<path d="M7067 7311 c-54 -32 -102 -62 -108 -68 -14 -14 165 -117 189 -108 44
16 212 118 212 129 0 12 -160 106 -181 106 -8 -1 -58 -27 -112 -59z"/>
<path d="M9341 7323 l-64 -36 21 -18 c39 -31 150 -89 171 -89 22 0 141 66 141
79 0 14 -158 101 -182 101 -13 0 -52 -17 -87 -37z"/>
<path d="M9748 7297 c-59 -34 -106 -66 -104 -72 4 -13 157 -104 176 -105 22 0
231 122 227 133 -4 12 -167 107 -182 107 -5 0 -58 -29 -117 -63z"/>
<path d="M8336 7263 c-55 -32 -101 -63 -103 -69 -5 -14 148 -104 177 -104 26
0 232 119 225 130 -9 15 -164 100 -182 100 -10 0 -63 -26 -117 -57z"/>
<path d="M8745 7241 c-55 -33 -100 -65 -100 -72 0 -12 124 -91 162 -103 20 -6
237 111 238 128 0 11 -165 106 -185 105 -8 0 -60 -26 -115 -58z"/>
<path d="M7375 7230 c-55 -32 -101 -63 -103 -68 -5 -16 170 -113 191 -106 34
11 210 119 210 129 1 14 -154 104 -178 104 -11 -1 -65 -27 -120 -59z"/>
<path d="M9150 7211 c-35 -21 -65 -42 -67 -47 -4 -13 153 -104 179 -104 28 0
149 71 145 85 -4 12 -164 105 -181 105 -7 0 -41 -17 -76 -39z"/>
<path d="M7743 7180 c-57 -33 -103 -64 -103 -69 0 -15 155 -101 181 -101 26 1
218 109 221 125 2 13 -152 104 -177 105 -11 0 -66 -27 -122 -60z"/>
<path d="M6783 7147 c-57 -34 -103 -64 -103 -68 0 -7 119 -80 161 -99 24 -11
37 -6 137 52 62 34 110 68 109 73 -6 16 -160 104 -182 104 -11 -1 -66 -28
-122 -62z"/>
<path d="M9477 7139 c-59 -33 -107 -66 -107 -72 0 -7 35 -32 78 -57 66 -38 74
-45 52 -48 -16 -3 -54 11 -106 39 l-81 42 -111 -64 c-61 -35 -110 -68 -109
-74 5 -13 159 -104 178 -105 25 0 31 -48 8 -55 -45 -15 -31 -116 37 -264 42
-92 68 -111 126 -92 50 17 103 106 94 160 -3 22 -9 46 -12 54 -3 9 4 25 16 37
21 21 23 21 41 4 12 -11 19 -30 19 -56 l0 -38 38 23 c20 14 58 36 83 50 121
68 130 149 29 241 -44 39 -132 86 -162 86 -34 0 -17 16 84 75 56 33 102 64
101 70 -1 10 -161 104 -178 105 -6 0 -58 -27 -118 -61z"/>
<path d="M8055 7101 c-54 -32 -100 -62 -102 -67 -4 -12 159 -104 183 -104 23
1 216 110 221 126 5 15 -150 104 -179 104 -13 -1 -68 -27 -123 -59z"/>
<path d="M8463 7077 c-57 -34 -103 -64 -103 -68 0 -12 163 -101 185 -101 25 0
225 113 225 127 0 14 -163 105 -186 104 -11 0 -65 -28 -121 -62z"/>
<path d="M11020 7134 c-8 -3 -44 -19 -79 -37 -82 -41 -209 -173 -350 -362 -58
-77 -106 -142 -107 -144 -2 -2 -84 62 -183 143 l-180 145 -55 -62 c-31 -34
-56 -66 -56 -70 0 -18 260 -266 327 -311 87 -59 164 -87 205 -76 15 5 67 45
115 89 48 44 89 79 91 77 2 -3 0 -98 -4 -212 -6 -171 -10 -209 -23 -220 -9 -8
-216 -130 -461 -272 l-445 -259 -9 -52 c-6 -34 -5 -56 1 -62 7 -7 149 70 449
245 242 140 447 258 456 261 15 6 16 -10 15 -181 l-2 -188 38 -7 c20 -3 39 -8
41 -10 2 -2 9 -119 15 -259 7 -140 27 -568 46 -950 19 -382 35 -704 35 -715 0
-13 -18 -35 -47 -57 -72 -55 -179 -165 -193 -199 -18 -43 1 -63 54 -55 40 7
228 91 344 154 l62 34 0 101 c0 56 3 134 7 172 7 65 9 56 18 -105 l10 -175
-40 -48 c-22 -26 -64 -75 -93 -110 -51 -59 -92 -124 -92 -147 0 -16 52 -12
126 11 79 24 248 91 304 119 l37 19 6 118 c4 65 20 550 37 1078 17 528 33 970
35 982 3 12 15 25 26 28 22 7 22 9 15 219 -4 116 -9 236 -12 266 l-6 55 71 34
c38 19 73 42 77 50 3 9 9 85 12 169 l5 153 71 41 c108 62 116 71 116 139 l0
57 -90 -54 c-49 -30 -93 -54 -98 -54 -4 0 -14 39 -21 88 -15 106 -54 226 -87
269 -14 18 -44 44 -67 57 -50 29 -190 71 -210 63 -28 -11 -96 -368 -148 -776
l-24 -184 -45 -21 c-25 -11 -47 -21 -48 -23 -2 -1 11 -15 29 -31 29 -26 33
-35 34 -83 0 -30 3 -56 6 -59 3 -3 3 -30 0 -60 l-6 -55 -85 3 c-104 4 -116 7
-123 32 -3 11 -14 20 -24 20 -22 0 -43 18 -43 37 0 7 16 30 35 52 l35 38 0
104 c1 156 17 393 35 494 25 141 81 385 107 463 14 40 24 72 24 71 -1 0 -8 -3
-16 -5z"/>
<path d="M7102 7070 c-56 -33 -102 -65 -102 -70 0 -14 152 -100 178 -100 28 0
234 118 227 130 -9 14 -167 100 -184 100 -10 0 -63 -27 -119 -60z"/>
<path d="M8845 7035 c-87 -51 -161 -97 -163 -103 -1 -5 37 -33 86 -61 75 -43
94 -50 113 -42 45 18 323 186 326 197 4 13 -157 104 -183 103 -10 0 -91 -43
-179 -94z"/>
<path d="M7461 7018 c-102 -61 -103 -62 -82 -79 38 -31 149 -89 169 -89 23 0
214 110 219 126 5 15 -150 104 -179 103 -13 0 -70 -28 -127 -61z"/>
<path d="M6512 6989 c-57 -33 -101 -66 -99 -72 1 -5 42 -33 90 -60 l88 -50
111 65 c61 35 111 68 112 73 1 12 -161 105 -182 105 -10 0 -63 -28 -120 -61z"/>
<path d="M11053 7003 c-7 -2 -13 -22 -13 -43 0 -21 -16 -130 -34 -242 -52
-304 -66 -534 -35 -554 10 -6 33 37 66 125 23 61 26 89 38 357 9 197 18 299
26 312 21 33 -10 61 -48 45z"/>
<path d="M7781 6942 c-52 -32 -96 -62 -98 -68 -4 -13 155 -104 180 -104 18 0
227 119 227 129 0 14 -162 101 -188 100 -15 0 -69 -26 -121 -57z"/>
<path d="M8195 6921 c-54 -32 -101 -63 -103 -69 -4 -13 151 -102 180 -102 28
0 231 118 223 130 -10 15 -164 100 -182 100 -10 -1 -63 -27 -118 -59z"/>
<path d="M6825 6910 c-55 -33 -101 -63 -103 -68 -3 -11 160 -102 184 -102 22
0 216 110 221 125 4 14 -153 105 -180 104 -12 0 -67 -27 -122 -59z"/>
<path d="M7193 6862 c-56 -31 -102 -62 -103 -68 0 -13 160 -104 184 -104 19 0
226 118 226 129 0 12 -161 101 -183 101 -12 0 -68 -26 -124 -58z"/>
<path d="M8516 6842 c-55 -31 -101 -62 -103 -69 -5 -15 144 -103 175 -103 27
0 234 118 227 129 -9 15 -165 101 -182 101 -10 0 -63 -26 -117 -58z"/>
<path d="M6300 6867 c-19 -13 -65 -41 -102 -61 -38 -21 -68 -41 -68 -45 0 -12
164 -103 185 -103 25 0 224 113 225 128 0 14 -161 104 -186 104 -11 0 -35 -11
-54 -23z"/>
<path d="M8925 6819 c-55 -32 -101 -64 -102 -71 -3 -12 155 -108 178 -108 13
0 217 118 224 130 6 10 -164 110 -185 109 -8 0 -60 -27 -115 -60z"/>
<path d="M7515 6786 c-61 -35 -110 -67 -109 -72 1 -13 162 -104 182 -104 26 0
224 120 220 132 -4 11 -164 108 -178 108 -3 0 -55 -29 -115 -64z"/>
<path d="M7919 6761 c-52 -31 -97 -60 -99 -66 -5 -13 149 -105 176 -105 28 0
224 111 224 127 0 16 -155 103 -182 102 -13 -1 -66 -26 -119 -58z"/>
<path d="M6556 6752 c-55 -31 -101 -62 -103 -68 -5 -14 149 -104 177 -104 18
0 79 31 194 100 l39 24 -22 17 c-36 30 -148 89 -168 89 -10 0 -63 -26 -117
-58z"/>
<path d="M6918 6702 c-54 -31 -98 -62 -98 -67 0 -14 155 -105 178 -105 27 0
217 114 217 130 0 19 -143 100 -175 99 -14 0 -69 -26 -122 -57z"/>
<path d="M8235 6680 c-55 -33 -101 -63 -103 -68 -3 -11 160 -102 184 -102 22
0 216 110 221 125 4 14 -153 105 -180 104 -12 0 -67 -27 -122 -59z"/>
<path d="M5963 6669 c-57 -33 -103 -64 -103 -68 0 -14 158 -101 182 -101 24 0
228 115 228 128 0 11 -166 102 -186 102 -11 0 -65 -28 -121 -61z"/>
<path d="M8105 6342 c-357 -208 -650 -384 -650 -391 0 -17 143 -100 173 -100
27 -1 1322 748 1322 764 -1 12 -161 105 -181 105 -8 0 -306 -171 -664 -378z"/>
<path d="M7305 6662 c-137 -74 -174 -98 -172 -107 5 -14 158 -104 179 -105 24
0 223 118 223 132 0 10 -158 107 -175 108 -3 0 -28 -12 -55 -28z"/>
<path d="M7643 6599 c-57 -33 -103 -64 -103 -69 0 -12 164 -100 187 -100 20 0
223 116 223 128 0 13 -160 102 -183 102 -12 0 -68 -28 -124 -61z"/>
<path d="M6273 6588 c-57 -33 -101 -64 -98 -68 9 -15 164 -100 182 -100 22 0
215 111 220 126 5 15 -149 104 -179 103 -13 0 -69 -27 -125 -61z"/>
<path d="M6730 6591 c-88 -47 -182 -107 -184 -116 -1 -12 154 -104 177 -105
21 0 227 118 227 130 0 8 -138 92 -170 105 -8 3 -31 -3 -50 -14z"/>
<path d="M7966 6522 c-55 -31 -101 -62 -103 -68 -5 -14 151 -104 179 -104 21
0 228 117 228 129 0 12 -165 101 -186 101 -10 0 -64 -26 -118 -58z"/>
<path d="M5689 6512 c-52 -32 -97 -61 -99 -67 -4 -13 149 -104 177 -105 26 0
222 111 223 127 0 16 -154 103 -182 102 -13 0 -66 -26 -119 -57z"/>
<path d="M6968 6468 c-60 -34 -108 -67 -108 -73 0 -16 169 -108 189 -102 22 5
208 115 216 126 5 8 -163 111 -181 111 -5 0 -57 -28 -116 -62z"/>
<path d="M7368 6442 c-54 -32 -98 -62 -98 -67 0 -14 156 -105 180 -105 20 0
230 118 230 130 0 13 -167 100 -191 99 -13 0 -68 -26 -121 -57z"/>
<path d="M6006 6432 c-55 -31 -101 -62 -103 -67 -4 -12 157 -105 182 -105 20
0 225 118 225 130 0 13 -159 100 -182 100 -13 0 -68 -26 -122 -58z"/>
<path d="M4067 6437 l-37 -21 0 -135 c0 -152 6 -172 60 -206 l35 -22 -5 198
c-3 108 -7 200 -10 203 -3 2 -22 -5 -43 -17z"/>
<path d="M6378 6387 c-59 -34 -108 -66 -108 -72 0 -12 161 -105 181 -105 17 0
229 122 229 131 0 8 -173 109 -186 109 -5 0 -57 -28 -116 -63z"/>
<path d="M7682 6359 c-56 -34 -100 -64 -97 -68 9 -15 165 -101 182 -101 23 0
215 111 220 127 6 16 -145 103 -177 102 -14 0 -71 -27 -128 -60z"/>
<path d="M5413 6350 c-57 -33 -103 -64 -103 -68 0 -11 166 -102 186 -102 22 0
224 117 224 129 0 14 -158 101 -182 101 -13 0 -69 -27 -125 -60z"/>
<path d="M6697 6311 c-54 -32 -102 -62 -108 -68 -8 -8 10 -23 62 -54 120 -70
109 -70 229 0 58 34 105 66 105 73 0 14 -152 107 -175 107 -8 0 -59 -26 -113
-58z"/>
<path d="M5738 6277 c-59 -34 -108 -67 -108 -73 0 -12 159 -104 180 -104 15 0
230 121 230 130 0 7 -150 96 -176 104 -13 3 -56 -16 -126 -57z"/>
<path d="M7092 6279 c-56 -33 -100 -64 -97 -69 9 -15 164 -100 182 -100 22 0
223 117 223 130 0 14 -155 100 -181 100 -13 0 -70 -27 -127 -61z"/>
<path d="M6105 6228 c-60 -35 -108 -67 -108 -73 0 -11 161 -104 181 -105 22 0
223 122 219 134 -4 12 -156 105 -172 106 -6 0 -60 -28 -120 -62z"/>
<path d="M9030 6267 c-48 -18 -779 -443 -807 -470 -13 -11 -23 -28 -23 -37 0
-29 38 -54 350 -234 314 -181 351 -197 420 -179 33 9 35 12 38 56 3 45 2 47
-33 61 -47 20 -65 64 -65 156 0 213 139 561 248 621 12 7 19 16 14 21 -15 15
-106 19 -142 5z"/>
<path d="M7464 6231 c-93 -51 -154 -90 -154 -99 0 -11 165 -102 185 -102 20 0
225 119 225 130 0 8 -139 91 -171 102 -9 4 -47 -11 -85 -31z"/>
<path d="M5213 6232 c-132 -72 -173 -98 -173 -108 0 -12 160 -104 182 -104 17
0 228 120 228 130 0 6 -137 89 -171 102 -10 4 -36 -4 -66 -20z"/>
<path d="M6418 6148 c-60 -34 -108 -65 -108 -69 0 -8 95 -68 151 -94 l37 -18
111 64 c61 35 109 68 108 74 -4 12 -164 105 -180 105 -7 0 -60 -28 -119 -62z"/>
<path d="M6895 6163 c-135 -74 -175 -99 -175 -108 0 -12 161 -105 182 -105 18
0 228 120 228 130 0 8 -139 93 -170 104 -8 4 -38 -6 -65 -21z"/>
<path d="M5465 6118 c-60 -35 -108 -67 -108 -73 0 -12 159 -105 179 -105 24 0
225 122 221 134 -3 10 -164 106 -177 106 -3 0 -55 -28 -115 -62z"/>
<path d="M5830 6069 c-58 -34 -107 -64 -110 -66 -7 -7 39 -39 116 -79 l70 -38
112 64 c62 35 111 69 109 75 -4 12 -164 105 -180 105 -7 0 -59 -28 -117 -61z"/>
<path d="M7148 6047 c-59 -34 -108 -66 -108 -72 0 -12 159 -105 179 -105 17 0
231 122 231 131 0 8 -150 95 -178 103 -10 3 -60 -20 -124 -57z"/>
<path d="M4880 6039 c-58 -33 -109 -64 -113 -68 -4 -4 5 -16 20 -26 62 -41
146 -85 161 -85 26 0 224 120 219 133 -3 10 -163 107 -177 107 -3 0 -52 -27
-110 -61z"/>
<path d="M6145 5991 c-55 -33 -100 -65 -100 -72 0 -12 124 -91 162 -103 19 -6
235 111 237 128 1 11 -164 106 -184 105 -8 0 -60 -26 -115 -58z"/>
<path d="M6560 5969 c-58 -33 -109 -64 -113 -69 -5 -4 24 -27 64 -51 122 -71
112 -71 225 -5 55 32 105 63 112 70 9 9 -7 23 -77 64 -49 29 -93 52 -98 52 -5
0 -55 -27 -113 -61z"/>
<path d="M5188 5957 c-59 -34 -106 -66 -105 -72 5 -13 158 -104 176 -105 21 0
231 123 228 134 -4 11 -167 106 -182 106 -5 0 -58 -28 -117 -63z"/>
<path d="M5623 5948 c-149 -82 -403 -235 -403 -243 0 -14 156 -105 178 -105
10 0 96 46 192 101 96 56 194 112 218 126 23 13 42 28 42 33 0 13 -161 110
-182 110 -2 0 -22 -10 -45 -22z"/>
<path d="M6960 5937 c-65 -35 -190 -110 -195 -117 -6 -10 158 -110 181 -110
24 0 225 122 221 134 -3 10 -164 106 -177 106 -3 0 -16 -6 -30 -13z"/>
<path d="M4180 5873 c0 -32 6 -66 13 -75 6 -9 691 -409 1522 -888 1040 -600
1524 -874 1555 -881 83 -18 120 -1 484 210 1007 586 1188 691 1193 691 3 0 2
-15 -1 -34 -9 -48 9 -195 39 -308 42 -163 65 -417 85 -963 5 -154 12 -332 15
-395 2 -63 5 -199 5 -303 l0 -187 25 -12 c24 -11 25 -15 25 -94 0 -82 0 -84
27 -90 14 -4 84 -4 155 -1 l128 6 0 -79 0 -79 43 -12 c85 -23 410 15 473 56
13 8 24 22 24 30 0 20 -99 63 -217 93 l-104 27 5 450 c3 248 8 557 12 687 l7
238 227 132 227 132 6 156 c3 85 3 212 -1 282 l-7 126 -100 -60 -100 -60 0
-93 c0 -84 -2 -96 -23 -118 -49 -52 -84 -39 -122 45 -13 29 -25 54 -26 56 -1
2 -16 -4 -33 -13 l-31 -16 0 108 c0 108 -25 263 -42 263 -5 0 -21 -6 -37 -14
-78 -41 -287 -39 -453 3 -149 38 -208 74 -225 137 l-8 32 -550 -320 c-302
-176 -646 -375 -763 -443 -117 -69 -232 -130 -255 -136 -48 -13 -127 -5 -169
17 -76 39 -2995 1728 -3010 1742 -17 14 -18 12 -18 -45z"/>
<path d="M7276 5861 c-54 -32 -98 -62 -99 -67 -1 -13 153 -104 177 -104 25 0
218 110 223 126 5 15 -149 104 -179 103 -13 0 -67 -26 -122 -58z"/>
<path d="M5863 5827 c-57 -34 -103 -64 -103 -68 0 -12 163 -102 184 -101 26 0
226 113 226 127 0 14 -163 105 -186 104 -11 0 -65 -28 -121 -62z"/>
<path d="M6290 5814 c-135 -79 -133 -75 -63 -117 32 -19 75 -43 95 -53 l37
-17 111 63 c61 35 109 68 107 74 -4 13 -164 106 -180 106 -7 -1 -55 -26 -107
-56z"/>
<path d="M6597 5728 c-59 -34 -106 -67 -104 -72 4 -13 158 -105 176 -106 21 0
231 123 228 134 -4 11 -167 106 -182 106 -5 0 -58 -28 -118 -62z"/>
<path d="M7006 5702 c-55 -31 -101 -62 -103 -67 -4 -12 156 -105 181 -105 20
0 226 118 226 130 0 13 -160 100 -184 100 -11 0 -66 -26 -120 -58z"/>
<path d="M5567 5654 c-70 -41 -125 -79 -122 -84 10 -16 162 -100 181 -100 25
0 276 149 269 160 -10 16 -162 100 -181 100 -10 0 -77 -34 -147 -76z"/>
<path d="M5892 5583 c-122 -71 -222 -133 -222 -138 0 -14 157 -105 181 -105
22 0 449 248 449 261 0 12 -162 109 -183 109 -1 0 -103 -57 -225 -127z"/>
<path d="M6325 5570 c-55 -33 -101 -65 -102 -72 -3 -12 155 -108 176 -108 12
0 200 108 219 125 11 10 -3 22 -76 64 -49 28 -96 51 -103 50 -8 0 -59 -27
-114 -59z"/>
<path d="M6792 5577 c-120 -66 -162 -92 -162 -102 0 -13 157 -105 178 -105 17
0 232 120 232 130 0 6 -140 89 -172 102 -11 4 -38 -5 -76 -25z"/>
<path d="M6048 5408 c-60 -34 -108 -66 -108 -69 0 -8 172 -109 185 -109 16 0
225 125 225 135 0 12 -161 105 -181 105 -8 0 -62 -28 -121 -62z"/>
<path d="M6465 5388 c-60 -35 -108 -67 -108 -73 0 -13 153 -104 176 -105 24 0
229 120 224 133 -3 9 -165 107 -177 107 -3 0 -55 -28 -115 -62z"/>
<path d="M6208 5239 c-49 -28 -88 -54 -88 -57 0 -12 161 -102 183 -102 22 0
187 89 187 101 0 9 -171 109 -185 109 -5 0 -49 -23 -97 -51z"/>
</g>
</svg>
